<?xml version="1.0" encoding="UTF-8"?>
<svg width="512px" height="512px" viewBox="0 0 512 512" version="1.1" xmlns="http://www.w3.org/2000/svg" xmlns:xlink="http://www.w3.org/1999/xlink">
    <!-- Generator: Sketch 43.2 (39069) - http://www.bohemiancoding.com/sketch -->
    <title>large</title>
    <desc>Created with Sketch.</desc>
    <defs></defs>
    <g id="Page-1" stroke="none" stroke-width="1" fill="none" fill-rule="evenodd">
        <g id="large" fill-rule="nonzero">
            <g id="Group" transform="translate(35.000000, 6.000000)">
                <g id="crash-dummy-symbol" transform="translate(114.153664, 142.557652)">
                    <ellipse id="Oval" fill="#F7DC4D" cx="107.639766" cy="107.459486" rx="106.85442" ry="107.083767"></ellipse>
                    <path d="M214.494186,107.460804 L214.494186,107.460804 C214.494186,48.3200538 166.653852,0.377036951 107.639766,0.377036951 L107.639766,107.460804 L214.494186,107.460804 Z" id="Shape" fill="#3E3E42"></path>
                    <path d="M0.785346047,107.460804 L0.785346047,107.460804 C0.785346047,166.601555 48.6256806,214.544572 107.639766,214.544572 L107.639766,107.460804 L0.785346047,107.460804 Z" id="Shape" fill="#3E3E42"></path>
                </g>
                <g id="GraphQL_Logo" fill="#E535AB">
                    <rect id="Rectangle-path" transform="translate(133.049067, 403.811097) rotate(-149.999272) translate(-133.049067, -403.811097) " x="15.5103205" y="393.224595" width="235.077493" height="21.1730036"></rect>
                    <rect id="Rectangle-path" transform="translate(309.900358, 96.312372) rotate(-149.999272) translate(-309.900358, -96.312372) " x="192.361612" y="85.7258707" width="235.077493" height="21.1730036"></rect>
                    <rect id="Rectangle-path" transform="translate(133.105487, 96.231760) rotate(-120.000728) translate(-133.105487, -96.231760) " x="122.558767" y="-21.750338" width="21.0934399" height="235.964196"></rect>
                    <rect id="Rectangle-path" x="34.0692264" y="132.015306" width="21.093904" height="235.969388"></rect>
                    <rect id="Rectangle-path" x="387.83687" y="132.015306" width="21.093904" height="235.969388"></rect>
                    <rect id="Rectangle-path" transform="translate(309.899469, 403.693367) rotate(-120.000728) translate(-309.899469, -403.693367) " x="300.686972" y="301.080829" width="18.4249927" height="205.225077"></rect>
                    <path d="M436.88655,374.872449 C424.687666,396.173469 397.49432,403.443878 376.273344,391.19898 C355.052368,378.954082 347.809281,351.658163 360.008165,330.357143 C372.207049,309.056122 399.400395,301.785714 420.621371,314.030612 C441.969418,326.403061 449.212506,353.571429 436.88655,374.872449" id="Shape"></path>
                    <path d="M82.8647634,169.642857 C70.6658792,190.943878 43.472533,198.214286 22.2515573,185.969388 C1.03058159,173.72449 -6.21250593,146.428571 5.98637832,125.127551 C18.1852626,103.826531 45.3786087,96.5561224 66.5995844,108.80102 C87.8205601,121.173469 95.0636477,148.341837 82.8647634,169.642857" id="Shape"></path>
                    <path d="M6.11345003,374.872449 C-6.08543422,353.571429 1.1576533,326.403061 22.378629,314.030612 C43.5996047,301.785714 70.6658792,309.056122 82.9918351,330.357143 C95.1907194,351.658163 87.9476318,378.826531 66.7266561,391.19898 C45.3786087,403.443878 18.3123343,396.173469 6.11345003,374.872449" id="Shape"></path>
                    <path d="M360.135237,169.642857 C347.936352,148.341837 355.17944,121.173469 376.400416,108.80102 C397.621391,96.5561224 424.687666,103.826531 437.013622,125.127551 C449.212506,146.428571 441.969418,173.596939 420.748443,185.969388 C399.527467,198.214286 372.334121,190.943878 360.135237,169.642857" id="Shape"></path>
                    <path d="M221.5,499.744898 C196.97516,499.744898 177.151973,479.846939 177.151973,455.229592 C177.151973,430.612245 196.97516,410.714286 221.5,410.714286 C246.02484,410.714286 265.848027,430.612245 265.848027,455.229592 C265.848027,479.719388 246.02484,499.744898 221.5,499.744898" id="Shape"></path>
                    <path d="M221.5,89.2857143 C196.97516,89.2857143 177.151973,69.3877551 177.151973,44.7704082 C177.151973,20.1530612 196.97516,0.255102041 221.5,0.255102041 C246.02484,0.255102041 265.848027,20.1530612 265.848027,44.7704082 C265.848027,69.3877551 246.02484,89.2857143 221.5,89.2857143" id="Shape"></path>
                </g>
            </g>
        </g>
    </g>
</svg>