<?xml version="1.0" encoding="UTF-8"?>
<svg width="520px" height="520px" viewBox="0 0 520 520" version="1.1" xmlns="http://www.w3.org/2000/svg" xmlns:xlink="http://www.w3.org/1999/xlink">
    <title>graphql-paper</title>
    <g id="graphql-paper" stroke="none" stroke-width="1" fill="none" fill-rule="evenodd">
        <rect fill="#FFFFFF" x="0" y="0" width="520" height="520"></rect>
        <g id="1184426" transform="translate(-37.000000, -38.000000)" fill="#69FFDE" fill-rule="nonzero">
            <g id="Group" transform="translate(604.500000, 606.500000) scale(-1, 1) rotate(-180.000000) translate(-604.500000, -606.500000) ">
                <path d="M36.8367187,1195.65789 C36.8367187,1183.43312 36.4589062,1177.93672 35.7032812,1177.17859 C34.9476562,1176.42047 29.469375,1176.04141 17.2849219,1176.04141 L0,1176.04141 L0,1170.35547 L0,1164.66953 L17.2849219,1164.66953 C29.469375,1164.66953 34.9476562,1164.29047 35.7032812,1163.53234 C37.3089844,1161.92133 37.3089844,1093.50055 35.7032812,1091.88953 C34.9476562,1091.13141 29.469375,1090.75234 17.2849219,1090.75234 L0,1090.75234 L0,1085.06641 L0,1079.38047 L17.2849219,1079.38047 C29.469375,1079.38047 34.9476562,1079.00141 35.7032812,1078.24328 C37.3089844,1076.63227 37.3089844,1008.21148 35.7032812,1006.60047 C34.9476562,1005.84234 29.469375,1005.46328 17.2849219,1005.46328 L0,1005.46328 L0,999.777344 L0,994.091406 L17.2849219,994.091406 C29.469375,994.091406 34.9476562,993.712344 35.7032812,992.954219 C37.3089844,991.343203 37.3089844,922.922422 35.7032812,921.311406 C34.9476562,920.553281 29.469375,920.174219 17.2849219,920.174219 L0,920.174219 L0,914.488281 L0,908.802344 L17.2849219,908.802344 C29.469375,908.802344 34.9476562,908.423281 35.7032812,907.665156 C37.3089844,906.054141 37.3089844,837.633359 35.7032812,836.022344 C34.9476562,835.264219 29.469375,834.885156 17.2849219,834.885156 L0,834.885156 L0,829.199219 L0,823.513281 L17.2849219,823.513281 C29.469375,823.513281 34.9476562,823.134219 35.7032812,822.376094 C37.3089844,820.765078 37.3089844,752.344297 35.7032812,750.733281 C34.9476562,749.975156 29.469375,749.596094 17.2849219,749.596094 L0,749.596094 L0,743.910156 L0,738.224219 L17.2849219,738.224219 C29.469375,738.224219 34.9476562,737.845156 35.7032812,737.087031 C37.3089844,735.476016 37.3089844,667.055234 35.7032812,665.444219 C34.9476562,664.686094 29.469375,664.307031 17.2849219,664.307031 L0,664.307031 L0,658.621094 L0,652.935156 L16.62375,652.935156 C26.2579687,652.935156 33.9086719,652.556094 35.0421094,651.9875 C36.7422656,651.039844 36.8367187,649.618359 36.8367187,616.166094 C36.8367187,590.295078 36.5533594,581.008047 35.7032812,580.155156 C34.9476562,579.397031 29.469375,579.017969 17.2849219,579.017969 L0,579.017969 L0,573.332031 L0,567.646094 L16.62375,567.646094 C26.2579687,567.646094 33.9086719,567.267031 35.0421094,566.698437 C36.7422656,565.750781 36.8367187,564.329297 36.8367187,530.877031 C36.8367187,505.006016 36.5533594,495.718984 35.7032812,494.866094 C34.9476562,494.107969 29.469375,493.728906 17.2849219,493.728906 L0,493.728906 L0,488.042969 L0,482.357031 L16.62375,482.357031 C26.2579687,482.357031 33.9086719,481.977969 35.0421094,481.409375 C36.7422656,480.461719 36.8367187,479.040234 36.8367187,445.587969 C36.8367187,419.716953 36.5533594,410.429922 35.7032812,409.577031 C34.9476562,408.818906 29.469375,408.439844 17.2849219,408.439844 L0,408.439844 L0,402.753906 L0,397.067969 L16.62375,397.067969 C26.2579687,397.067969 33.9086719,396.688906 35.0421094,396.120312 C36.7422656,395.172656 36.8367187,393.751172 36.8367187,360.298906 C36.8367187,334.427891 36.5533594,325.140859 35.7032812,324.287969 C34.9476562,323.529844 29.469375,323.150781 17.2849219,323.150781 L0,323.150781 L0,317.464844 L0,311.778906 L16.62375,311.778906 C26.2579687,311.778906 33.9086719,311.399844 35.0421094,310.83125 C36.7422656,309.883594 36.8367187,308.462109 36.8367187,275.009844 C36.8367187,249.138828 36.5533594,239.851797 35.7032812,238.998906 C34.9476562,238.240781 29.469375,237.861719 17.2849219,237.861719 L0,237.861719 L0,232.175781 L0,226.489844 L16.62375,226.489844 C26.2579687,226.489844 33.9086719,226.110781 35.0421094,225.542187 C36.7422656,224.594531 36.8367187,223.173047 36.8367187,189.720781 C36.8367187,163.849766 36.5533594,154.562734 35.7032812,153.709844 C34.9476562,152.951719 29.469375,152.572656 17.2849219,152.572656 L0,152.572656 L0,146.886719 L0,141.200781 L16.62375,141.200781 C26.2579687,141.200781 33.9086719,140.821719 35.0421094,140.253125 C36.7422656,139.305469 36.8367187,137.883984 36.8367187,104.431719 C36.8367187,78.5607031 36.5533594,69.2736719 35.7032812,68.4207812 C34.9476562,67.6626562 29.469375,67.2835937 17.2849219,67.2835937 L0,67.2835937 L0,61.5976562 L0,55.9117187 L16.9071094,55.9117187 C31.0750781,55.9117187 34.0975781,55.6274219 35.3254687,54.3954687 C36.6478125,53.1635156 36.8367187,49.278125 36.8367187,26.4396094 L36.8367187,0 L42.5039062,0 L48.1710937,0 L48.1710937,26.4396094 C48.1710937,49.278125 48.36,53.1635156 49.6823437,54.3954687 C50.9102344,55.7221875 55.4439844,55.9117187 84.63,55.9117187 C105.976406,55.9117187 118.822031,55.5326562 120.049922,54.9640625 C121.750078,54.0164062 121.844531,52.6896875 121.844531,27.0082031 L121.844531,0 L127.511719,0 L133.178906,0 L133.178906,26.4396094 C133.178906,49.278125 133.367812,53.1635156 134.690156,54.3954687 C135.918047,55.7221875 140.451797,55.9117187 169.637812,55.9117187 C190.984219,55.9117187 203.829844,55.5326562 205.057734,54.9640625 C206.757891,54.0164062 206.852344,52.6896875 206.852344,27.0082031 L206.852344,0 L212.519531,0 L218.186719,0 L218.186719,26.4396094 C218.186719,49.278125 218.375625,53.1635156 219.697969,54.3954687 C220.925859,55.7221875 225.459609,55.9117187 254.645625,55.9117187 C275.992031,55.9117187 288.837656,55.5326562 290.065547,54.9640625 C291.765703,54.0164062 291.860156,52.6896875 291.860156,27.0082031 L291.860156,0 L297.527344,0 L303.194531,0 L303.194531,26.4396094 C303.194531,49.278125 303.383437,53.1635156 304.705781,54.3954687 C305.933672,55.7221875 310.467422,55.9117187 339.653437,55.9117187 C360.999844,55.9117187 373.845469,55.5326562 375.073359,54.9640625 C376.773516,54.0164062 376.867969,52.6896875 376.867969,27.0082031 L376.867969,0 L382.535156,0 L388.202344,0 L388.202344,26.4396094 C388.202344,49.278125 388.39125,53.1635156 389.713594,54.3954687 C390.941484,55.7221875 395.475234,55.9117187 424.66125,55.9117187 C446.007656,55.9117187 458.853281,55.5326562 460.081172,54.9640625 C461.781328,54.0164062 461.875781,52.6896875 461.875781,27.0082031 L461.875781,0 L467.542969,0 L473.210156,0 L473.210156,26.4396094 C473.210156,49.278125 473.399062,53.1635156 474.721406,54.3954687 C475.949297,55.7221875 480.483047,55.9117187 509.669062,55.9117187 C531.015469,55.9117187 543.861094,55.5326562 545.088984,54.9640625 C546.789141,54.0164062 546.883594,52.6896875 546.883594,27.0082031 L546.883594,0 L552.550781,0 L558.217969,0 L558.217969,26.4396094 C558.217969,49.278125 558.406875,53.1635156 559.729219,54.3954687 C560.957109,55.7221875 565.490859,55.9117187 594.676875,55.9117187 C616.023281,55.9117187 628.868906,55.5326562 630.096797,54.9640625 C631.796953,54.0164062 631.891406,52.6896875 631.891406,27.0082031 L631.891406,0 L637.558594,0 L643.225781,0 L643.225781,26.4396094 C643.225781,49.278125 643.414687,53.1635156 644.737031,54.3954687 C645.964922,55.7221875 650.498672,55.9117187 679.684687,55.9117187 C701.031094,55.9117187 713.876719,55.5326562 715.104609,54.9640625 C716.804766,54.0164062 716.899219,52.6896875 716.899219,27.0082031 L716.899219,0 L722.566406,0 L728.233594,0 L728.233594,26.4396094 C728.233594,49.278125 728.4225,53.1635156 729.744844,54.3954687 C730.972734,55.7221875 735.506484,55.9117187 764.6925,55.9117187 C786.038906,55.9117187 798.884531,55.5326562 800.112422,54.9640625 C801.812578,54.0164062 801.907031,52.6896875 801.907031,27.0082031 L801.907031,0 L807.574219,0 L813.241406,0 L813.241406,26.4396094 C813.241406,49.278125 813.430312,53.1635156 814.752656,54.3954687 C815.980547,55.7221875 820.514297,55.9117187 849.700312,55.9117187 C871.046719,55.9117187 883.892344,55.5326562 885.120234,54.9640625 C886.820391,54.0164062 886.914844,52.6896875 886.914844,27.0082031 L886.914844,0 L892.582031,0 L898.249219,0 L898.249219,26.4396094 C898.249219,49.278125 898.438125,53.1635156 899.760469,54.3954687 C900.988359,55.7221875 905.522109,55.9117187 934.708125,55.9117187 C956.054531,55.9117187 968.900156,55.5326562 970.128047,54.9640625 C971.828203,54.0164062 971.922656,52.6896875 971.922656,27.0082031 L971.922656,0 L977.589844,0 L983.257031,0 L983.257031,26.4396094 C983.257031,49.278125 983.445937,53.1635156 984.768281,54.3954687 C985.996172,55.7221875 990.529922,55.9117187 1019.71594,55.9117187 C1041.06234,55.9117187 1053.90797,55.5326562 1055.13586,54.9640625 C1056.83602,54.0164062 1056.93047,52.6896875 1056.93047,27.0082031 L1056.93047,0 L1062.59766,0 L1068.26484,0 L1068.26484,26.4396094 C1068.26484,49.278125 1068.45375,53.1635156 1069.77609,54.3954687 C1071.00398,55.7221875 1075.53773,55.9117187 1104.72375,55.9117187 C1126.07016,55.9117187 1138.91578,55.5326562 1140.14367,54.9640625 C1141.84383,54.0164062 1141.93828,52.6896875 1141.93828,27.0082031 L1141.93828,0 L1147.60547,0 L1153.27266,0 L1153.27266,26.4396094 C1153.27266,49.278125 1153.46156,53.1635156 1154.78391,54.3954687 C1156.0118,55.7221875 1159.88437,55.9117187 1182.64758,55.9117187 L1209,55.9117187 L1209,61.5976562 L1209,67.2835937 L1182.08086,67.2835937 C1156.48406,67.2835937 1155.16172,67.3783594 1154.21719,69.0841406 C1153.65047,70.3160937 1153.27266,83.2042187 1153.27266,104.62125 C1153.27266,133.903828 1153.46156,138.452578 1154.78391,139.684531 C1156.0118,141.01125 1159.88437,141.200781 1182.64758,141.200781 L1209,141.200781 L1209,146.886719 L1209,152.572656 L1182.08086,152.572656 C1156.48406,152.572656 1155.16172,152.667422 1154.21719,154.373203 C1153.65047,155.605156 1153.27266,168.493281 1153.27266,189.910312 C1153.27266,219.192891 1153.46156,223.741641 1154.78391,224.973594 C1156.0118,226.300312 1159.88437,226.489844 1182.64758,226.489844 L1209,226.489844 L1209,232.175781 L1209,237.861719 L1182.08086,237.861719 C1156.48406,237.861719 1155.16172,237.956484 1154.21719,239.662266 C1153.65047,240.894219 1153.27266,253.782344 1153.27266,275.199375 C1153.27266,304.481953 1153.46156,309.030703 1154.78391,310.262656 C1156.0118,311.589375 1159.88437,311.778906 1182.64758,311.778906 L1209,311.778906 L1209,317.464844 L1209,323.150781 L1182.08086,323.150781 C1156.48406,323.150781 1155.16172,323.245547 1154.21719,324.951328 C1153.65047,326.183281 1153.27266,339.071406 1153.27266,360.488437 C1153.27266,389.771016 1153.46156,394.319766 1154.78391,395.551719 C1156.0118,396.878437 1159.88437,397.067969 1182.64758,397.067969 L1209,397.067969 L1209,402.753906 L1209,408.439844 L1182.08086,408.439844 C1156.48406,408.439844 1155.16172,408.534609 1154.21719,410.240391 C1153.65047,411.472344 1153.27266,424.360469 1153.27266,445.7775 C1153.27266,475.060078 1153.46156,479.608828 1154.78391,480.840781 C1156.0118,482.1675 1159.88437,482.357031 1182.64758,482.357031 L1209,482.357031 L1209,488.042969 L1209,493.728906 L1182.08086,493.728906 C1156.48406,493.728906 1155.16172,493.823672 1154.21719,495.529453 C1153.65047,496.761406 1153.27266,509.649531 1153.27266,531.066562 C1153.27266,560.349141 1153.46156,564.897891 1154.78391,566.129844 C1156.0118,567.456562 1159.88437,567.646094 1182.64758,567.646094 L1209,567.646094 L1209,573.332031 L1209,579.017969 L1182.08086,579.017969 C1156.48406,579.017969 1155.16172,579.112734 1154.21719,580.818516 C1153.65047,582.050469 1153.27266,594.938594 1153.27266,616.355625 C1153.27266,645.638203 1153.46156,650.186953 1154.78391,651.418906 C1156.0118,652.745625 1159.88437,652.935156 1182.64758,652.935156 L1209,652.935156 L1209,658.621094 L1209,664.307031 L1182.08086,664.307031 C1156.48406,664.307031 1155.16172,664.401797 1154.21719,666.107578 C1153.65047,667.339531 1153.27266,680.227656 1153.27266,701.644687 C1153.27266,730.927266 1153.46156,735.476016 1154.78391,736.707969 C1156.0118,738.034687 1159.88437,738.224219 1182.64758,738.224219 L1209,738.224219 L1209,743.910156 L1209,749.596094 L1182.08086,749.596094 C1156.48406,749.596094 1155.16172,749.690859 1154.21719,751.396641 C1153.65047,752.628594 1153.27266,765.516719 1153.27266,786.93375 C1153.27266,816.216328 1153.46156,820.765078 1154.78391,821.997031 C1156.0118,823.32375 1159.88437,823.513281 1182.64758,823.513281 L1209,823.513281 L1209,829.199219 L1209,834.885156 L1182.08086,834.885156 C1156.48406,834.885156 1155.16172,834.979922 1154.21719,836.685703 C1153.65047,837.917656 1153.27266,850.805781 1153.27266,872.222812 C1153.27266,901.505391 1153.46156,906.054141 1154.78391,907.286094 C1156.0118,908.612812 1159.88437,908.802344 1182.64758,908.802344 L1209,908.802344 L1209,914.488281 L1209,920.174219 L1182.08086,920.174219 C1156.48406,920.174219 1155.16172,920.268984 1154.21719,921.974766 C1153.65047,923.206719 1153.27266,936.094844 1153.27266,957.511875 C1153.27266,986.794453 1153.46156,991.343203 1154.78391,992.575156 C1156.0118,993.901875 1159.88437,994.091406 1182.64758,994.091406 L1209,994.091406 L1209,999.777344 L1209,1005.46328 L1182.08086,1005.46328 C1156.48406,1005.46328 1155.16172,1005.55805 1154.21719,1007.26383 C1153.65047,1008.49578 1153.27266,1021.38391 1153.27266,1042.80094 C1153.27266,1072.08352 1153.46156,1076.63227 1154.78391,1077.86422 C1156.0118,1079.19094 1159.88437,1079.38047 1182.64758,1079.38047 L1209,1079.38047 L1209,1085.06641 L1209,1090.75234 L1182.08086,1090.75234 C1156.48406,1090.75234 1155.16172,1090.84711 1154.21719,1092.55289 C1153.65047,1093.78484 1153.27266,1106.67297 1153.27266,1128.09 C1153.27266,1157.37258 1153.46156,1161.92133 1154.78391,1163.15328 C1156.0118,1164.48 1159.88437,1164.66953 1182.64758,1164.66953 L1209,1164.66953 L1209,1170.35547 L1209,1176.04141 L1182.64758,1176.04141 C1159.88437,1176.04141 1156.0118,1176.23094 1154.78391,1177.55766 C1153.55602,1178.78961 1153.27266,1181.82211 1153.27266,1196.03695 L1153.27266,1213 L1147.60547,1213 L1141.93828,1213 L1141.93828,1195.65789 C1141.93828,1183.43312 1141.56047,1177.93672 1140.80484,1177.17859 C1139.95477,1176.3257 1130.69836,1176.04141 1104.91266,1176.04141 C1071.5707,1176.04141 1070.15391,1176.13617 1069.20937,1177.84195 C1068.64266,1178.97914 1068.26484,1186.65516 1068.26484,1196.32125 L1068.26484,1213 L1062.59766,1213 L1056.93047,1213 L1056.93047,1195.65789 C1056.93047,1183.43312 1056.55266,1177.93672 1055.79703,1177.17859 C1054.94695,1176.3257 1045.69055,1176.04141 1019.90484,1176.04141 C986.562891,1176.04141 985.146094,1176.13617 984.201562,1177.84195 C983.634844,1178.97914 983.257031,1186.65516 983.257031,1196.32125 L983.257031,1213 L977.589844,1213 L971.922656,1213 L971.922656,1195.65789 C971.922656,1183.43312 971.544844,1177.93672 970.789219,1177.17859 C969.939141,1176.3257 960.682734,1176.04141 934.897031,1176.04141 C901.555078,1176.04141 900.138281,1176.13617 899.19375,1177.84195 C898.627031,1178.97914 898.249219,1186.65516 898.249219,1196.32125 L898.249219,1213 L892.582031,1213 L886.914844,1213 L886.914844,1195.65789 C886.914844,1183.43312 886.537031,1177.93672 885.781406,1177.17859 C884.931328,1176.3257 875.674922,1176.04141 849.889219,1176.04141 C816.547266,1176.04141 815.130469,1176.13617 814.185937,1177.84195 C813.619219,1178.97914 813.241406,1186.65516 813.241406,1196.32125 L813.241406,1213 L807.574219,1213 L801.907031,1213 L801.907031,1195.65789 C801.907031,1183.43312 801.529219,1177.93672 800.773594,1177.17859 C799.923516,1176.3257 790.667109,1176.04141 764.881406,1176.04141 C731.539453,1176.04141 730.122656,1176.13617 729.178125,1177.84195 C728.611406,1178.97914 728.233594,1186.65516 728.233594,1196.32125 L728.233594,1213 L722.566406,1213 L716.899219,1213 L716.899219,1195.65789 C716.899219,1183.43312 716.521406,1177.93672 715.765781,1177.17859 C714.915703,1176.3257 705.659297,1176.04141 679.873594,1176.04141 C646.531641,1176.04141 645.114844,1176.13617 644.170312,1177.84195 C643.603594,1178.97914 643.225781,1186.65516 643.225781,1196.32125 L643.225781,1213 L637.558594,1213 L631.891406,1213 L631.891406,1195.65789 C631.891406,1183.43312 631.513594,1177.93672 630.757969,1177.17859 C629.907891,1176.3257 620.651484,1176.04141 594.865781,1176.04141 C561.523828,1176.04141 560.107031,1176.13617 559.1625,1177.84195 C558.595781,1178.97914 558.217969,1186.65516 558.217969,1196.32125 L558.217969,1213 L552.550781,1213 L546.883594,1213 L546.883594,1195.65789 C546.883594,1183.43312 546.505781,1177.93672 545.750156,1177.17859 C544.144453,1175.56758 475.949297,1175.56758 474.343594,1177.17859 C473.587969,1177.93672 473.210156,1183.43312 473.210156,1195.65789 L473.210156,1213 L467.542969,1213 L461.875781,1213 L461.875781,1195.65789 C461.875781,1183.43312 461.497969,1177.93672 460.742344,1177.17859 C459.136641,1175.56758 390.941484,1175.56758 389.335781,1177.17859 C388.580156,1177.93672 388.202344,1183.43312 388.202344,1195.65789 L388.202344,1213 L382.535156,1213 L376.867969,1213 L376.867969,1195.65789 C376.867969,1183.43312 376.490156,1177.93672 375.734531,1177.17859 C374.128828,1175.56758 305.933672,1175.56758 304.327969,1177.17859 C303.572344,1177.93672 303.194531,1183.43312 303.194531,1195.65789 L303.194531,1213 L297.527344,1213 L291.860156,1213 L291.860156,1195.65789 C291.860156,1183.43312 291.482344,1177.93672 290.726719,1177.17859 C289.876641,1176.3257 280.620234,1176.04141 255.023437,1176.04141 C229.426641,1176.04141 220.170234,1176.3257 219.320156,1177.17859 C218.564531,1177.93672 218.186719,1183.43312 218.186719,1195.65789 L218.186719,1213 L212.519531,1213 L206.852344,1213 L206.852344,1195.65789 C206.852344,1183.43312 206.474531,1177.93672 205.718906,1177.17859 C204.113203,1175.56758 135.918047,1175.56758 134.312344,1177.17859 C133.556719,1177.93672 133.178906,1183.43312 133.178906,1195.65789 L133.178906,1213 L127.511719,1213 L121.844531,1213 L121.844531,1195.65789 C121.844531,1183.43312 121.466719,1177.93672 120.711094,1177.17859 C119.105391,1175.56758 50.9102344,1175.56758 49.3045312,1177.17859 C48.5489062,1177.93672 48.1710937,1183.43312 48.1710937,1195.65789 L48.1710937,1213 L42.5039062,1213 L36.8367187,1213 L36.8367187,1195.65789 Z M120.711094,1163.53234 C122.316797,1161.92133 122.316797,1093.50055 120.711094,1091.88953 C119.105391,1090.27852 50.9102344,1090.27852 49.3045313,1091.88953 C47.6988281,1093.50055 47.6988281,1161.92133 49.3045313,1163.53234 C50.1546094,1164.38523 59.4110156,1164.66953 85.0078125,1164.66953 C110.604609,1164.66953 119.861016,1164.38523 120.711094,1163.53234 Z M205.718906,1163.53234 C207.324609,1161.92133 207.324609,1093.50055 205.718906,1091.88953 C204.113203,1090.27852 135.918047,1090.27852 134.312344,1091.88953 C132.706641,1093.50055 132.706641,1161.92133 134.312344,1163.53234 C135.162422,1164.38523 144.418828,1164.66953 170.015625,1164.66953 C195.612422,1164.66953 204.868828,1164.38523 205.718906,1163.53234 Z M290.726719,1163.53234 C292.332422,1161.92133 292.332422,1093.50055 290.726719,1091.88953 C289.121016,1090.27852 220.925859,1090.27852 219.320156,1091.88953 C217.714453,1093.50055 217.714453,1161.92133 219.320156,1163.53234 C220.170234,1164.38523 229.426641,1164.66953 255.023437,1164.66953 C280.620234,1164.66953 289.876641,1164.38523 290.726719,1163.53234 Z M375.734531,1163.53234 C377.340234,1161.92133 377.340234,1093.50055 375.734531,1091.88953 C374.128828,1090.27852 305.933672,1090.27852 304.327969,1091.88953 C302.722266,1093.50055 302.722266,1161.92133 304.327969,1163.53234 C305.178047,1164.38523 314.434453,1164.66953 340.03125,1164.66953 C365.628047,1164.66953 374.884453,1164.38523 375.734531,1163.53234 Z M460.742344,1163.53234 C462.348047,1161.92133 462.348047,1093.50055 460.742344,1091.88953 C459.136641,1090.27852 390.941484,1090.27852 389.335781,1091.88953 C387.730078,1093.50055 387.730078,1161.92133 389.335781,1163.53234 C390.185859,1164.38523 399.442266,1164.66953 425.039062,1164.66953 C450.635859,1164.66953 459.892266,1164.38523 460.742344,1163.53234 Z M545.750156,1163.53234 C547.355859,1161.92133 547.355859,1093.50055 545.750156,1091.88953 C544.144453,1090.27852 475.949297,1090.27852 474.343594,1091.88953 C472.832344,1093.40578 472.737891,1160.02602 474.154687,1162.86898 C475.099219,1164.57477 476.516016,1164.66953 509.857969,1164.66953 C535.643672,1164.66953 544.900078,1164.38523 545.750156,1163.53234 Z M630.757969,1163.53234 C632.363672,1161.92133 632.363672,1093.50055 630.757969,1091.88953 C629.152266,1090.27852 560.957109,1090.27852 559.351406,1091.88953 C557.840156,1093.40578 557.745703,1160.02602 559.1625,1162.86898 C560.107031,1164.57477 561.523828,1164.66953 594.865781,1164.66953 C620.651484,1164.66953 629.907891,1164.38523 630.757969,1163.53234 Z M715.765781,1163.53234 C717.371484,1161.92133 717.371484,1093.50055 715.765781,1091.88953 C714.915703,1091.03664 705.659297,1090.75234 679.873594,1090.75234 C646.531641,1090.75234 645.114844,1090.84711 644.170312,1092.55289 C643.603594,1093.78484 643.225781,1106.5782 643.225781,1127.71094 C643.225781,1148.84367 643.603594,1161.63703 644.170312,1162.86898 C645.114844,1164.57477 646.531641,1164.66953 679.873594,1164.66953 C705.659297,1164.66953 714.915703,1164.38523 715.765781,1163.53234 Z M800.773594,1163.53234 C802.379297,1161.92133 802.379297,1093.50055 800.773594,1091.88953 C799.923516,1091.03664 790.667109,1090.75234 764.881406,1090.75234 C731.539453,1090.75234 730.122656,1090.84711 729.178125,1092.55289 C728.611406,1093.78484 728.233594,1106.5782 728.233594,1127.71094 C728.233594,1148.84367 728.611406,1161.63703 729.178125,1162.86898 C730.122656,1164.57477 731.539453,1164.66953 764.881406,1164.66953 C790.667109,1164.66953 799.923516,1164.38523 800.773594,1163.53234 Z M885.781406,1163.53234 C887.387109,1161.92133 887.387109,1093.50055 885.781406,1091.88953 C884.931328,1091.03664 875.674922,1090.75234 849.889219,1090.75234 C816.547266,1090.75234 815.130469,1090.84711 814.185937,1092.55289 C813.619219,1093.78484 813.241406,1106.5782 813.241406,1127.71094 C813.241406,1148.84367 813.619219,1161.63703 814.185937,1162.86898 C815.130469,1164.57477 816.547266,1164.66953 849.889219,1164.66953 C875.674922,1164.66953 884.931328,1164.38523 885.781406,1163.53234 Z M970.789219,1163.53234 C972.394922,1161.92133 972.394922,1093.50055 970.789219,1091.88953 C969.939141,1091.03664 960.682734,1090.75234 934.897031,1090.75234 C901.555078,1090.75234 900.138281,1090.84711 899.19375,1092.55289 C898.627031,1093.78484 898.249219,1106.5782 898.249219,1127.71094 C898.249219,1148.84367 898.627031,1161.63703 899.19375,1162.86898 C900.138281,1164.57477 901.555078,1164.66953 934.897031,1164.66953 C960.682734,1164.66953 969.939141,1164.38523 970.789219,1163.53234 Z M1055.79703,1163.53234 C1057.40273,1161.92133 1057.40273,1093.50055 1055.79703,1091.88953 C1054.94695,1091.03664 1045.69055,1090.75234 1019.90484,1090.75234 C986.562891,1090.75234 985.146094,1090.84711 984.201562,1092.55289 C983.634844,1093.78484 983.257031,1106.67297 983.257031,1128.09 C983.257031,1157.37258 983.445937,1161.92133 984.768281,1163.15328 C985.996172,1164.48 990.624375,1164.66953 1020.47156,1164.66953 C1045.785,1164.66953 1054.94695,1164.38523 1055.79703,1163.53234 Z M1140.80484,1163.53234 C1142.41055,1161.92133 1142.41055,1093.50055 1140.80484,1091.88953 C1139.95477,1091.03664 1130.69836,1090.75234 1104.91266,1090.75234 C1071.5707,1090.75234 1070.15391,1090.84711 1069.20937,1092.55289 C1068.64266,1093.78484 1068.26484,1106.67297 1068.26484,1128.09 C1068.26484,1157.37258 1068.45375,1161.92133 1069.77609,1163.15328 C1071.00398,1164.48 1075.63219,1164.66953 1105.47937,1164.66953 C1130.79281,1164.66953 1139.95477,1164.38523 1140.80484,1163.53234 Z M120.711094,1078.24328 C122.316797,1076.63227 122.316797,1008.21148 120.711094,1006.60047 C119.105391,1004.98945 50.9102344,1004.98945 49.3045313,1006.60047 C47.6988281,1008.21148 47.6988281,1076.63227 49.3045313,1078.24328 C50.1546094,1079.09617 59.4110156,1079.38047 85.0078125,1079.38047 C110.604609,1079.38047 119.861016,1079.09617 120.711094,1078.24328 Z M205.718906,1078.24328 C207.324609,1076.63227 207.324609,1008.21148 205.718906,1006.60047 C204.113203,1004.98945 135.918047,1004.98945 134.312344,1006.60047 C132.706641,1008.21148 132.706641,1076.63227 134.312344,1078.24328 C135.162422,1079.09617 144.418828,1079.38047 170.015625,1079.38047 C195.612422,1079.38047 204.868828,1079.09617 205.718906,1078.24328 Z M290.726719,1078.24328 C292.332422,1076.63227 292.332422,1008.21148 290.726719,1006.60047 C289.121016,1004.98945 220.925859,1004.98945 219.320156,1006.60047 C217.714453,1008.21148 217.714453,1076.63227 219.320156,1078.24328 C220.170234,1079.09617 229.426641,1079.38047 255.023437,1079.38047 C280.620234,1079.38047 289.876641,1079.09617 290.726719,1078.24328 Z M375.734531,1078.24328 C377.340234,1076.63227 377.340234,1008.21148 375.734531,1006.60047 C374.128828,1004.98945 305.933672,1004.98945 304.327969,1006.60047 C302.722266,1008.21148 302.722266,1076.63227 304.327969,1078.24328 C305.178047,1079.09617 314.434453,1079.38047 340.03125,1079.38047 C365.628047,1079.38047 374.884453,1079.09617 375.734531,1078.24328 Z M460.742344,1078.24328 C462.348047,1076.63227 462.348047,1008.21148 460.742344,1006.60047 C459.136641,1004.98945 390.941484,1004.98945 389.335781,1006.60047 C387.824531,1008.11672 387.730078,1074.73695 389.146875,1077.57992 C390.091406,1079.2857 391.508203,1079.38047 424.850156,1079.38047 C450.635859,1079.38047 459.892266,1079.09617 460.742344,1078.24328 Z M545.750156,1078.24328 C547.355859,1076.63227 547.355859,1008.21148 545.750156,1006.60047 C544.144453,1004.98945 475.949297,1004.98945 474.343594,1006.60047 C472.832344,1008.11672 472.737891,1074.73695 474.154687,1077.57992 C475.099219,1079.2857 476.516016,1079.38047 509.857969,1079.38047 C535.643672,1079.38047 544.900078,1079.09617 545.750156,1078.24328 Z M630.757969,1078.24328 C632.363672,1076.63227 632.363672,1008.21148 630.757969,1006.60047 C629.907891,1005.74758 620.651484,1005.46328 594.865781,1005.46328 C561.523828,1005.46328 560.107031,1005.55805 559.1625,1007.26383 C558.595781,1008.49578 558.217969,1021.28914 558.217969,1042.42187 C558.217969,1063.55461 558.595781,1076.34797 559.1625,1077.57992 C560.107031,1079.2857 561.523828,1079.38047 594.865781,1079.38047 C620.651484,1079.38047 629.907891,1079.09617 630.757969,1078.24328 Z M715.765781,1078.24328 C717.371484,1076.63227 717.371484,1008.21148 715.765781,1006.60047 C714.915703,1005.74758 705.659297,1005.46328 679.873594,1005.46328 C646.531641,1005.46328 645.114844,1005.55805 644.170312,1007.26383 C643.603594,1008.49578 643.225781,1021.28914 643.225781,1042.42187 C643.225781,1063.55461 643.603594,1076.34797 644.170312,1077.57992 C645.114844,1079.2857 646.531641,1079.38047 679.873594,1079.38047 C705.659297,1079.38047 714.915703,1079.09617 715.765781,1078.24328 Z M800.773594,1078.24328 C802.379297,1076.63227 802.379297,1008.21148 800.773594,1006.60047 C799.923516,1005.74758 790.667109,1005.46328 764.881406,1005.46328 C731.539453,1005.46328 730.122656,1005.55805 729.178125,1007.26383 C728.611406,1008.49578 728.233594,1021.28914 728.233594,1042.42187 C728.233594,1063.55461 728.611406,1076.34797 729.178125,1077.57992 C730.122656,1079.2857 731.539453,1079.38047 764.881406,1079.38047 C790.667109,1079.38047 799.923516,1079.09617 800.773594,1078.24328 Z M885.781406,1078.24328 C887.387109,1076.63227 887.387109,1008.21148 885.781406,1006.60047 C884.931328,1005.74758 875.674922,1005.46328 849.889219,1005.46328 C816.547266,1005.46328 815.130469,1005.55805 814.185937,1007.26383 C813.619219,1008.49578 813.241406,1021.38391 813.241406,1042.80094 C813.241406,1072.08352 813.430312,1076.63227 814.752656,1077.86422 C815.980547,1079.19094 820.60875,1079.38047 850.455937,1079.38047 C875.769375,1079.38047 884.931328,1079.09617 885.781406,1078.24328 Z M970.789219,1078.24328 C972.394922,1076.63227 972.394922,1008.21148 970.789219,1006.60047 C969.939141,1005.74758 960.682734,1005.46328 934.897031,1005.46328 C901.555078,1005.46328 900.138281,1005.55805 899.19375,1007.26383 C898.627031,1008.49578 898.249219,1021.38391 898.249219,1042.80094 C898.249219,1072.08352 898.438125,1076.63227 899.760469,1077.86422 C900.988359,1079.19094 905.616562,1079.38047 935.46375,1079.38047 C960.777187,1079.38047 969.939141,1079.09617 970.789219,1078.24328 Z M1055.79703,1078.24328 C1057.40273,1076.63227 1057.40273,1008.21148 1055.79703,1006.60047 C1054.94695,1005.74758 1045.69055,1005.46328 1019.90484,1005.46328 C986.562891,1005.46328 985.146094,1005.55805 984.201562,1007.26383 C983.634844,1008.49578 983.257031,1021.38391 983.257031,1042.80094 C983.257031,1072.08352 983.445937,1076.63227 984.768281,1077.86422 C985.996172,1079.19094 990.624375,1079.38047 1020.47156,1079.38047 C1045.785,1079.38047 1054.94695,1079.09617 1055.79703,1078.24328 Z M1140.80484,1078.24328 C1142.41055,1076.63227 1142.41055,1008.21148 1140.80484,1006.60047 C1139.95477,1005.74758 1130.69836,1005.46328 1104.91266,1005.46328 C1071.5707,1005.46328 1070.15391,1005.55805 1069.20937,1007.26383 C1068.64266,1008.49578 1068.26484,1021.38391 1068.26484,1042.80094 C1068.26484,1072.08352 1068.45375,1076.63227 1069.77609,1077.86422 C1071.00398,1079.19094 1075.63219,1079.38047 1105.47937,1079.38047 C1130.79281,1079.38047 1139.95477,1079.09617 1140.80484,1078.24328 Z M120.711094,992.954219 C122.316797,991.343203 122.316797,922.922422 120.711094,921.311406 C119.105391,919.700391 50.9102344,919.700391 49.3045313,921.311406 C47.6988281,922.922422 47.6988281,991.343203 49.3045313,992.954219 C50.1546094,993.807109 59.4110156,994.091406 85.0078125,994.091406 C110.604609,994.091406 119.861016,993.807109 120.711094,992.954219 Z M205.718906,992.954219 C207.324609,991.343203 207.324609,922.922422 205.718906,921.311406 C204.113203,919.700391 135.918047,919.700391 134.312344,921.311406 C132.706641,922.922422 132.706641,991.343203 134.312344,992.954219 C135.162422,993.807109 144.418828,994.091406 170.015625,994.091406 C195.612422,994.091406 204.868828,993.807109 205.718906,992.954219 Z M290.726719,992.954219 C292.332422,991.343203 292.332422,922.922422 290.726719,921.311406 C289.121016,919.700391 220.925859,919.700391 219.320156,921.311406 C217.714453,922.922422 217.714453,991.343203 219.320156,992.954219 C220.170234,993.807109 229.426641,994.091406 255.023437,994.091406 C280.620234,994.091406 289.876641,993.807109 290.726719,992.954219 Z M375.734531,992.954219 C377.340234,991.343203 377.340234,922.922422 375.734531,921.311406 C374.128828,919.700391 305.933672,919.700391 304.327969,921.311406 C302.722266,922.922422 302.722266,991.343203 304.327969,992.954219 C305.178047,993.807109 314.434453,994.091406 340.03125,994.091406 C365.628047,994.091406 374.884453,993.807109 375.734531,992.954219 Z M460.742344,992.954219 C462.348047,991.343203 462.348047,922.922422 460.742344,921.311406 C459.136641,919.700391 390.941484,919.700391 389.335781,921.311406 C387.730078,922.922422 387.730078,991.343203 389.335781,992.954219 C390.185859,993.807109 399.442266,994.091406 425.039062,994.091406 C450.635859,994.091406 459.892266,993.807109 460.742344,992.954219 Z M545.750156,992.954219 C547.355859,991.343203 547.355859,922.922422 545.750156,921.311406 C544.144453,919.700391 475.949297,919.700391 474.343594,921.311406 C472.832344,922.827656 472.737891,989.447891 474.154687,992.290859 C475.099219,993.996641 476.516016,994.091406 509.857969,994.091406 C535.643672,994.091406 544.900078,993.807109 545.750156,992.954219 Z M630.757969,992.954219 C632.363672,991.343203 632.363672,922.922422 630.757969,921.311406 C629.152266,919.700391 560.957109,919.700391 559.351406,921.311406 C557.840156,922.827656 557.745703,989.447891 559.1625,992.290859 C560.107031,993.996641 561.523828,994.091406 594.865781,994.091406 C620.651484,994.091406 629.907891,993.807109 630.757969,992.954219 Z M715.765781,992.954219 C717.371484,991.343203 717.371484,922.922422 715.765781,921.311406 C714.915703,920.458516 705.659297,920.174219 679.873594,920.174219 C646.531641,920.174219 645.114844,920.268984 644.170312,921.974766 C643.603594,923.206719 643.225781,936.094844 643.225781,957.511875 C643.225781,986.794453 643.414687,991.343203 644.737031,992.575156 C645.964922,993.901875 650.593125,994.091406 680.440312,994.091406 C705.75375,994.091406 714.915703,993.807109 715.765781,992.954219 Z M800.773594,992.954219 C802.379297,991.343203 802.379297,922.922422 800.773594,921.311406 C799.923516,920.458516 790.667109,920.174219 764.881406,920.174219 C731.539453,920.174219 730.122656,920.268984 729.178125,921.974766 C728.611406,923.206719 728.233594,936.094844 728.233594,957.511875 C728.233594,986.794453 728.4225,991.343203 729.744844,992.575156 C730.972734,993.901875 735.600937,994.091406 765.448125,994.091406 C790.761562,994.091406 799.923516,993.807109 800.773594,992.954219 Z M885.781406,992.954219 C887.387109,991.343203 887.387109,922.922422 885.781406,921.311406 C884.931328,920.458516 875.674922,920.174219 849.889219,920.174219 C816.547266,920.174219 815.130469,920.268984 814.185937,921.974766 C813.619219,923.206719 813.241406,936.094844 813.241406,957.511875 C813.241406,986.794453 813.430312,991.343203 814.752656,992.575156 C815.980547,993.901875 820.60875,994.091406 850.455937,994.091406 C875.769375,994.091406 884.931328,993.807109 885.781406,992.954219 Z M970.789219,992.954219 C972.394922,991.343203 972.394922,922.922422 970.789219,921.311406 C969.939141,920.458516 960.682734,920.174219 934.897031,920.174219 C901.555078,920.174219 900.138281,920.268984 899.19375,921.974766 C898.627031,923.206719 898.249219,936.094844 898.249219,957.511875 C898.249219,986.794453 898.438125,991.343203 899.760469,992.575156 C900.988359,993.901875 905.616562,994.091406 935.46375,994.091406 C960.777187,994.091406 969.939141,993.807109 970.789219,992.954219 Z M1055.79703,992.954219 C1057.40273,991.343203 1057.40273,922.922422 1055.79703,921.311406 C1054.94695,920.458516 1045.69055,920.174219 1019.90484,920.174219 C986.562891,920.174219 985.146094,920.268984 984.201562,921.974766 C983.634844,923.206719 983.257031,936.094844 983.257031,957.511875 C983.257031,986.794453 983.445937,991.343203 984.768281,992.575156 C985.996172,993.901875 990.624375,994.091406 1020.47156,994.091406 C1045.785,994.091406 1054.94695,993.807109 1055.79703,992.954219 Z M1140.80484,992.954219 C1142.41055,991.343203 1142.41055,922.922422 1140.80484,921.311406 C1139.95477,920.458516 1130.69836,920.174219 1104.91266,920.174219 C1071.5707,920.174219 1070.15391,920.268984 1069.20937,921.974766 C1068.64266,923.206719 1068.26484,936.094844 1068.26484,957.511875 C1068.26484,986.794453 1068.45375,991.343203 1069.77609,992.575156 C1071.00398,993.901875 1075.63219,994.091406 1105.47937,994.091406 C1130.79281,994.091406 1139.95477,993.807109 1140.80484,992.954219 Z M120.711094,907.665156 C122.316797,906.054141 122.316797,837.633359 120.711094,836.022344 C119.105391,834.411328 50.9102344,834.411328 49.3045313,836.022344 C47.6988281,837.633359 47.6988281,906.054141 49.3045313,907.665156 C50.1546094,908.518047 59.4110156,908.802344 85.0078125,908.802344 C110.604609,908.802344 119.861016,908.518047 120.711094,907.665156 Z M205.718906,907.665156 C207.324609,906.054141 207.324609,837.633359 205.718906,836.022344 C204.113203,834.411328 135.918047,834.411328 134.312344,836.022344 C132.706641,837.633359 132.706641,906.054141 134.312344,907.665156 C135.162422,908.518047 144.418828,908.802344 170.015625,908.802344 C195.612422,908.802344 204.868828,908.518047 205.718906,907.665156 Z M290.726719,907.665156 C292.332422,906.054141 292.332422,837.633359 290.726719,836.022344 C289.121016,834.411328 220.925859,834.411328 219.320156,836.022344 C217.714453,837.633359 217.714453,906.054141 219.320156,907.665156 C220.170234,908.518047 229.426641,908.802344 255.023437,908.802344 C280.620234,908.802344 289.876641,908.518047 290.726719,907.665156 Z M375.734531,907.665156 C377.340234,906.054141 377.340234,837.633359 375.734531,836.022344 C374.128828,834.411328 305.933672,834.411328 304.327969,836.022344 C302.722266,837.633359 302.722266,906.054141 304.327969,907.665156 C305.178047,908.518047 314.434453,908.802344 340.03125,908.802344 C365.628047,908.802344 374.884453,908.518047 375.734531,907.665156 Z M460.742344,907.665156 C462.348047,906.054141 462.348047,837.633359 460.742344,836.022344 C459.136641,834.411328 390.941484,834.411328 389.335781,836.022344 C387.824531,837.538594 387.730078,904.158828 389.146875,907.001797 C390.091406,908.707578 391.508203,908.802344 424.850156,908.802344 C450.635859,908.802344 459.892266,908.518047 460.742344,907.665156 Z M545.750156,907.665156 C547.355859,906.054141 547.355859,837.633359 545.750156,836.022344 C544.144453,834.411328 475.949297,834.411328 474.343594,836.022344 C472.832344,837.538594 472.737891,904.158828 474.154687,907.001797 C475.099219,908.707578 476.516016,908.802344 509.857969,908.802344 C535.643672,908.802344 544.900078,908.518047 545.750156,907.665156 Z M630.757969,907.665156 C632.363672,906.054141 632.363672,837.633359 630.757969,836.022344 C629.152266,834.411328 560.957109,834.411328 559.351406,836.022344 C558.501328,836.875234 558.217969,846.0675 558.217969,871.464687 C558.217969,901.410625 558.406875,906.054141 559.729219,907.286094 C560.957109,908.612812 565.585312,908.802344 595.4325,908.802344 C620.745937,908.802344 629.907891,908.518047 630.757969,907.665156 Z M715.765781,907.665156 C717.371484,906.054141 717.371484,837.633359 715.765781,836.022344 C714.915703,835.169453 705.659297,834.885156 679.873594,834.885156 C646.531641,834.885156 645.114844,834.979922 644.170312,836.685703 C643.603594,837.917656 643.225781,850.805781 643.225781,872.222812 C643.225781,901.505391 643.414687,906.054141 644.737031,907.286094 C645.964922,908.612812 650.593125,908.802344 680.440312,908.802344 C705.75375,908.802344 714.915703,908.518047 715.765781,907.665156 Z M800.773594,907.665156 C802.379297,906.054141 802.379297,837.633359 800.773594,836.022344 C799.923516,835.169453 790.667109,834.885156 764.881406,834.885156 C731.539453,834.885156 730.122656,834.979922 729.178125,836.685703 C728.611406,837.917656 728.233594,850.805781 728.233594,872.222812 C728.233594,901.505391 728.4225,906.054141 729.744844,907.286094 C730.972734,908.612812 735.600937,908.802344 765.448125,908.802344 C790.761562,908.802344 799.923516,908.518047 800.773594,907.665156 Z M885.781406,907.665156 C887.387109,906.054141 887.387109,837.633359 885.781406,836.022344 C884.931328,835.169453 875.674922,834.885156 849.889219,834.885156 C816.547266,834.885156 815.130469,834.979922 814.185937,836.685703 C813.619219,837.917656 813.241406,850.805781 813.241406,872.222812 C813.241406,901.505391 813.430312,906.054141 814.752656,907.286094 C815.980547,908.612812 820.60875,908.802344 850.455937,908.802344 C875.769375,908.802344 884.931328,908.518047 885.781406,907.665156 Z M970.789219,907.665156 C972.394922,906.054141 972.394922,837.633359 970.789219,836.022344 C969.939141,835.169453 960.682734,834.885156 934.897031,834.885156 C901.555078,834.885156 900.138281,834.979922 899.19375,836.685703 C898.627031,837.917656 898.249219,850.805781 898.249219,872.222812 C898.249219,901.505391 898.438125,906.054141 899.760469,907.286094 C900.988359,908.612812 905.616562,908.802344 935.46375,908.802344 C960.777187,908.802344 969.939141,908.518047 970.789219,907.665156 Z M1055.79703,907.665156 C1057.40273,906.054141 1057.40273,837.633359 1055.79703,836.022344 C1054.94695,835.169453 1045.69055,834.885156 1019.90484,834.885156 C986.562891,834.885156 985.146094,834.979922 984.201562,836.685703 C983.634844,837.917656 983.257031,850.805781 983.257031,872.222812 C983.257031,901.505391 983.445937,906.054141 984.768281,907.286094 C985.996172,908.612812 990.624375,908.802344 1020.47156,908.802344 C1045.785,908.802344 1054.94695,908.518047 1055.79703,907.665156 Z M1140.80484,907.665156 C1142.41055,906.054141 1142.41055,837.633359 1140.80484,836.022344 C1139.95477,835.169453 1130.69836,834.885156 1104.91266,834.885156 C1071.5707,834.885156 1070.15391,834.979922 1069.20937,836.685703 C1068.64266,837.917656 1068.26484,850.805781 1068.26484,872.222812 C1068.26484,901.505391 1068.45375,906.054141 1069.77609,907.286094 C1071.00398,908.612812 1075.63219,908.802344 1105.47937,908.802344 C1130.79281,908.802344 1139.95477,908.518047 1140.80484,907.665156 Z M120.711094,822.376094 C122.316797,820.765078 122.316797,752.344297 120.711094,750.733281 C119.105391,749.122266 50.9102344,749.122266 49.3045313,750.733281 C47.6988281,752.344297 47.6988281,820.765078 49.3045313,822.376094 C50.1546094,823.228984 59.4110156,823.513281 85.0078125,823.513281 C110.604609,823.513281 119.861016,823.228984 120.711094,822.376094 Z M205.718906,822.376094 C207.324609,820.765078 207.324609,752.344297 205.718906,750.733281 C204.113203,749.122266 135.918047,749.122266 134.312344,750.733281 C132.706641,752.344297 132.706641,820.765078 134.312344,822.376094 C135.162422,823.228984 144.418828,823.513281 170.015625,823.513281 C195.612422,823.513281 204.868828,823.228984 205.718906,822.376094 Z M290.726719,822.376094 C292.332422,820.765078 292.332422,752.344297 290.726719,750.733281 C289.121016,749.122266 220.925859,749.122266 219.320156,750.733281 C218.470078,751.586172 218.186719,760.873203 218.186719,786.744219 C218.186719,818.869766 218.281172,821.617969 219.886875,822.470859 C222.342656,823.987109 289.215469,823.892344 290.726719,822.376094 Z M375.734531,822.376094 C377.340234,820.765078 377.340234,752.344297 375.734531,750.733281 C374.128828,749.122266 305.933672,749.122266 304.327969,750.733281 C303.477891,751.586172 303.194531,760.778438 303.194531,786.175625 C303.194531,816.121562 303.383437,820.765078 304.705781,821.997031 C305.933672,823.32375 310.561875,823.513281 340.409062,823.513281 C365.7225,823.513281 374.884453,823.228984 375.734531,822.376094 Z M460.742344,822.376094 C462.348047,820.765078 462.348047,752.344297 460.742344,750.733281 C459.136641,749.122266 390.941484,749.122266 389.335781,750.733281 C388.485703,751.586172 388.202344,760.778438 388.202344,786.175625 C388.202344,816.121562 388.39125,820.765078 389.713594,821.997031 C390.941484,823.32375 395.569687,823.513281 425.416875,823.513281 C450.730312,823.513281 459.892266,823.228984 460.742344,822.376094 Z M545.750156,822.376094 C547.355859,820.765078 547.355859,752.344297 545.750156,750.733281 C544.144453,749.122266 475.949297,749.122266 474.343594,750.733281 C473.493516,751.586172 473.210156,760.778438 473.210156,786.175625 C473.210156,816.121562 473.399062,820.765078 474.721406,821.997031 C475.949297,823.32375 480.5775,823.513281 510.424687,823.513281 C535.738125,823.513281 544.900078,823.228984 545.750156,822.376094 Z M630.757969,822.376094 C632.363672,820.765078 632.363672,752.344297 630.757969,750.733281 C629.152266,749.122266 560.957109,749.122266 559.351406,750.733281 C558.501328,751.586172 558.217969,760.778438 558.217969,786.175625 C558.217969,816.121562 558.406875,820.765078 559.729219,821.997031 C560.957109,823.32375 565.585312,823.513281 595.4325,823.513281 C620.745937,823.513281 629.907891,823.228984 630.757969,822.376094 Z M715.765781,822.376094 C717.371484,820.765078 717.371484,752.344297 715.765781,750.733281 C714.160078,749.122266 645.964922,749.122266 644.359219,750.733281 C643.509141,751.586172 643.225781,760.778438 643.225781,786.175625 C643.225781,816.121562 643.414687,820.765078 644.737031,821.997031 C645.964922,823.32375 650.593125,823.513281 680.440312,823.513281 C705.75375,823.513281 714.915703,823.228984 715.765781,822.376094 Z M800.773594,822.376094 C802.379297,820.765078 802.379297,752.344297 800.773594,750.733281 C799.923516,749.880391 790.667109,749.596094 764.881406,749.596094 C731.539453,749.596094 730.122656,749.690859 729.178125,751.396641 C728.611406,752.628594 728.233594,765.516719 728.233594,786.93375 C728.233594,816.216328 728.4225,820.765078 729.744844,821.997031 C730.972734,823.32375 735.600937,823.513281 765.448125,823.513281 C790.761562,823.513281 799.923516,823.228984 800.773594,822.376094 Z M885.781406,822.376094 C887.387109,820.765078 887.387109,752.344297 885.781406,750.733281 C884.931328,749.880391 875.674922,749.596094 849.889219,749.596094 C816.547266,749.596094 815.130469,749.690859 814.185937,751.396641 C813.619219,752.628594 813.241406,765.516719 813.241406,786.93375 C813.241406,816.216328 813.430312,820.765078 814.752656,821.997031 C815.980547,823.32375 820.60875,823.513281 850.455937,823.513281 C875.769375,823.513281 884.931328,823.228984 885.781406,822.376094 Z M970.789219,822.376094 C972.394922,820.765078 972.394922,752.344297 970.789219,750.733281 C969.939141,749.880391 960.682734,749.596094 934.897031,749.596094 C901.555078,749.596094 900.138281,749.690859 899.19375,751.396641 C898.627031,752.628594 898.249219,765.516719 898.249219,786.93375 C898.249219,816.216328 898.438125,820.765078 899.760469,821.997031 C900.988359,823.32375 905.616562,823.513281 935.46375,823.513281 C960.777187,823.513281 969.939141,823.228984 970.789219,822.376094 Z M1055.79703,822.376094 C1057.40273,820.765078 1057.40273,752.344297 1055.79703,750.733281 C1054.94695,749.880391 1045.69055,749.596094 1019.90484,749.596094 C986.562891,749.596094 985.146094,749.690859 984.201562,751.396641 C983.634844,752.628594 983.257031,765.516719 983.257031,786.93375 C983.257031,816.216328 983.445937,820.765078 984.768281,821.997031 C985.996172,823.32375 990.624375,823.513281 1020.47156,823.513281 C1045.785,823.513281 1054.94695,823.228984 1055.79703,822.376094 Z M1140.80484,822.376094 C1142.41055,820.765078 1142.41055,752.344297 1140.80484,750.733281 C1139.95477,749.880391 1130.69836,749.596094 1104.91266,749.596094 C1071.5707,749.596094 1070.15391,749.690859 1069.20937,751.396641 C1068.64266,752.628594 1068.26484,765.516719 1068.26484,786.93375 C1068.26484,816.216328 1068.45375,820.765078 1069.77609,821.997031 C1071.00398,823.32375 1075.63219,823.513281 1105.47937,823.513281 C1130.79281,823.513281 1139.95477,823.228984 1140.80484,822.376094 Z M120.711094,737.087031 C122.316797,735.476016 122.316797,667.055234 120.711094,665.444219 C119.105391,663.833203 50.9102344,663.833203 49.3045312,665.444219 C48.4544531,666.297109 48.1710937,675.584141 48.1710937,701.455156 C48.1710937,733.580703 48.2655469,736.328906 49.87125,737.181797 C52.3270312,738.698047 119.199844,738.603281 120.711094,737.087031 Z M205.718906,737.087031 C207.324609,735.476016 207.324609,667.055234 205.718906,665.444219 C204.113203,663.833203 135.918047,663.833203 134.312344,665.444219 C132.706641,667.055234 132.706641,735.476016 134.312344,737.087031 C135.162422,737.939922 144.418828,738.224219 170.015625,738.224219 C195.612422,738.224219 204.868828,737.939922 205.718906,737.087031 Z M290.726719,737.087031 C292.332422,735.476016 292.332422,667.055234 290.726719,665.444219 C289.121016,663.833203 220.925859,663.833203 219.320156,665.444219 C218.470078,666.297109 218.186719,675.584141 218.186719,701.455156 C218.186719,733.580703 218.281172,736.328906 219.886875,737.181797 C222.342656,738.698047 289.215469,738.603281 290.726719,737.087031 Z M375.734531,737.087031 C377.340234,735.476016 377.340234,667.055234 375.734531,665.444219 C374.128828,663.833203 305.933672,663.833203 304.327969,665.444219 C303.477891,666.297109 303.194531,675.489375 303.194531,700.886562 C303.194531,730.8325 303.383437,735.476016 304.705781,736.707969 C305.933672,738.034687 310.561875,738.224219 340.409062,738.224219 C365.7225,738.224219 374.884453,737.939922 375.734531,737.087031 Z M460.742344,737.087031 C462.348047,735.476016 462.348047,667.055234 460.742344,665.444219 C459.136641,663.833203 390.941484,663.833203 389.335781,665.444219 C388.485703,666.297109 388.202344,675.489375 388.202344,700.886562 C388.202344,730.8325 388.39125,735.476016 389.713594,736.707969 C390.941484,738.034687 395.569687,738.224219 425.416875,738.224219 C450.730312,738.224219 459.892266,737.939922 460.742344,737.087031 Z M545.750156,737.087031 C547.355859,735.476016 547.355859,667.055234 545.750156,665.444219 C544.144453,663.833203 475.949297,663.833203 474.343594,665.444219 C473.493516,666.297109 473.210156,675.489375 473.210156,700.886562 C473.210156,730.8325 473.399062,735.476016 474.721406,736.707969 C475.949297,738.034687 480.5775,738.224219 510.424687,738.224219 C535.738125,738.224219 544.900078,737.939922 545.750156,737.087031 Z M630.757969,737.087031 C632.363672,735.476016 632.363672,667.055234 630.757969,665.444219 C629.152266,663.833203 560.957109,663.833203 559.351406,665.444219 C558.501328,666.297109 558.217969,675.489375 558.217969,700.886562 C558.217969,730.8325 558.406875,735.476016 559.729219,736.707969 C560.957109,738.034687 565.585312,738.224219 595.4325,738.224219 C620.745937,738.224219 629.907891,737.939922 630.757969,737.087031 Z M715.765781,737.087031 C717.371484,735.476016 717.371484,667.055234 715.765781,665.444219 C714.160078,663.833203 645.964922,663.833203 644.359219,665.444219 C643.509141,666.297109 643.225781,675.489375 643.225781,700.886562 C643.225781,730.8325 643.414687,735.476016 644.737031,736.707969 C645.964922,738.034687 650.593125,738.224219 680.440312,738.224219 C705.75375,738.224219 714.915703,737.939922 715.765781,737.087031 Z M800.773594,737.087031 C802.379297,735.476016 802.379297,667.055234 800.773594,665.444219 C799.923516,664.591328 790.667109,664.307031 764.881406,664.307031 C731.539453,664.307031 730.122656,664.401797 729.178125,666.107578 C728.611406,667.339531 728.233594,680.227656 728.233594,701.644687 C728.233594,730.927266 728.4225,735.476016 729.744844,736.707969 C730.972734,738.034687 735.600937,738.224219 765.448125,738.224219 C790.761562,738.224219 799.923516,737.939922 800.773594,737.087031 Z M885.781406,737.087031 C887.387109,735.476016 887.387109,667.055234 885.781406,665.444219 C884.931328,664.591328 875.674922,664.307031 849.889219,664.307031 C816.547266,664.307031 815.130469,664.401797 814.185937,666.107578 C813.619219,667.339531 813.241406,680.227656 813.241406,701.644687 C813.241406,730.927266 813.430312,735.476016 814.752656,736.707969 C815.980547,738.034687 820.60875,738.224219 850.455937,738.224219 C875.769375,738.224219 884.931328,737.939922 885.781406,737.087031 Z M970.789219,737.087031 C972.394922,735.476016 972.394922,667.055234 970.789219,665.444219 C969.939141,664.591328 960.682734,664.307031 934.897031,664.307031 C901.555078,664.307031 900.138281,664.401797 899.19375,666.107578 C898.627031,667.339531 898.249219,680.227656 898.249219,701.644687 C898.249219,730.927266 898.438125,735.476016 899.760469,736.707969 C900.988359,738.034687 905.616562,738.224219 935.46375,738.224219 C960.777187,738.224219 969.939141,737.939922 970.789219,737.087031 Z M1055.79703,737.087031 C1057.40273,735.476016 1057.40273,667.055234 1055.79703,665.444219 C1054.94695,664.591328 1045.69055,664.307031 1019.90484,664.307031 C986.562891,664.307031 985.146094,664.401797 984.201562,666.107578 C983.634844,667.339531 983.257031,680.227656 983.257031,701.644687 C983.257031,730.927266 983.445937,735.476016 984.768281,736.707969 C985.996172,738.034687 990.624375,738.224219 1020.47156,738.224219 C1045.785,738.224219 1054.94695,737.939922 1055.79703,737.087031 Z M1140.80484,737.087031 C1142.41055,735.476016 1142.41055,667.055234 1140.80484,665.444219 C1139.95477,664.591328 1130.69836,664.307031 1104.91266,664.307031 C1071.5707,664.307031 1070.15391,664.401797 1069.20937,666.107578 C1068.64266,667.339531 1068.26484,680.227656 1068.26484,701.644687 C1068.26484,730.927266 1068.45375,735.476016 1069.77609,736.707969 C1071.00398,738.034687 1075.63219,738.224219 1105.47937,738.224219 C1130.79281,738.224219 1139.95477,737.939922 1140.80484,737.087031 Z M120.049922,651.9875 C121.750078,651.039844 121.844531,649.618359 121.844531,616.166094 C121.844531,590.295078 121.561172,581.008047 120.711094,580.155156 C119.105391,578.544141 50.9102344,578.544141 49.3045312,580.155156 C48.4544531,581.008047 48.1710937,590.295078 48.1710937,616.166094 C48.1710937,648.291641 48.2655469,651.039844 49.87125,651.892734 C52.138125,653.219453 117.594141,653.314219 120.049922,651.9875 Z M205.057734,651.9875 C206.757891,651.039844 206.852344,649.618359 206.852344,616.166094 C206.852344,590.295078 206.568984,581.008047 205.718906,580.155156 C204.113203,578.544141 135.918047,578.544141 134.312344,580.155156 C133.462266,581.008047 133.178906,590.295078 133.178906,616.166094 C133.178906,648.291641 133.273359,651.039844 134.879062,651.892734 C137.145937,653.219453 202.601953,653.314219 205.057734,651.9875 Z M290.726719,651.797969 C292.332422,650.186953 292.332422,581.766172 290.726719,580.155156 C289.121016,578.544141 220.925859,578.544141 219.320156,580.155156 C218.470078,581.008047 218.186719,590.295078 218.186719,616.166094 C218.186719,648.291641 218.281172,651.039844 219.886875,651.892734 C222.342656,653.408984 289.215469,653.314219 290.726719,651.797969 Z M375.734531,651.797969 C377.340234,650.186953 377.340234,581.766172 375.734531,580.155156 C374.128828,578.544141 305.933672,578.544141 304.327969,580.155156 C303.477891,581.008047 303.194531,590.200312 303.194531,615.5975 C303.194531,645.543437 303.383437,650.186953 304.705781,651.418906 C305.933672,652.745625 310.561875,652.935156 340.409062,652.935156 C365.7225,652.935156 374.884453,652.650859 375.734531,651.797969 Z M460.742344,651.797969 C462.348047,650.186953 462.348047,581.766172 460.742344,580.155156 C459.136641,578.544141 390.941484,578.544141 389.335781,580.155156 C388.485703,581.008047 388.202344,590.200312 388.202344,615.5975 C388.202344,645.543437 388.39125,650.186953 389.713594,651.418906 C390.941484,652.745625 395.569687,652.935156 425.416875,652.935156 C450.730312,652.935156 459.892266,652.650859 460.742344,651.797969 Z M545.750156,651.797969 C547.355859,650.186953 547.355859,581.766172 545.750156,580.155156 C544.144453,578.544141 475.949297,578.544141 474.343594,580.155156 C473.493516,581.008047 473.210156,590.200312 473.210156,615.5975 C473.210156,645.543437 473.399062,650.186953 474.721406,651.418906 C475.949297,652.745625 480.5775,652.935156 510.424687,652.935156 C535.738125,652.935156 544.900078,652.650859 545.750156,651.797969 Z M630.757969,651.797969 C632.363672,650.186953 632.363672,581.766172 630.757969,580.155156 C629.152266,578.544141 560.957109,578.544141 559.351406,580.155156 C558.501328,581.008047 558.217969,590.200312 558.217969,615.5975 C558.217969,645.543437 558.406875,650.186953 559.729219,651.418906 C560.957109,652.745625 565.585312,652.935156 595.4325,652.935156 C620.745937,652.935156 629.907891,652.650859 630.757969,651.797969 Z M715.765781,651.797969 C717.371484,650.186953 717.371484,581.766172 715.765781,580.155156 C714.160078,578.544141 645.964922,578.544141 644.359219,580.155156 C643.509141,581.008047 643.225781,590.200312 643.225781,615.5975 C643.225781,645.543437 643.414687,650.186953 644.737031,651.418906 C645.964922,652.745625 650.593125,652.935156 680.440312,652.935156 C705.75375,652.935156 714.915703,652.650859 715.765781,651.797969 Z M800.773594,651.797969 C802.379297,650.186953 802.379297,581.766172 800.773594,580.155156 C799.923516,579.302266 790.667109,579.017969 764.881406,579.017969 C731.539453,579.017969 730.122656,579.112734 729.178125,580.818516 C728.611406,582.050469 728.233594,594.938594 728.233594,616.355625 C728.233594,645.638203 728.4225,650.186953 729.744844,651.418906 C730.972734,652.745625 735.600937,652.935156 765.448125,652.935156 C790.761562,652.935156 799.923516,652.650859 800.773594,651.797969 Z M885.781406,651.797969 C887.387109,650.186953 887.387109,581.766172 885.781406,580.155156 C884.931328,579.302266 875.674922,579.017969 849.889219,579.017969 C816.547266,579.017969 815.130469,579.112734 814.185937,580.818516 C813.619219,582.050469 813.241406,594.938594 813.241406,616.355625 C813.241406,645.638203 813.430312,650.186953 814.752656,651.418906 C815.980547,652.745625 820.60875,652.935156 850.455937,652.935156 C875.769375,652.935156 884.931328,652.650859 885.781406,651.797969 Z M970.789219,651.797969 C972.394922,650.186953 972.394922,581.766172 970.789219,580.155156 C969.939141,579.302266 960.682734,579.017969 934.897031,579.017969 C901.555078,579.017969 900.138281,579.112734 899.19375,580.818516 C898.627031,582.050469 898.249219,594.938594 898.249219,616.355625 C898.249219,645.638203 898.438125,650.186953 899.760469,651.418906 C900.988359,652.745625 905.616562,652.935156 935.46375,652.935156 C960.777187,652.935156 969.939141,652.650859 970.789219,651.797969 Z M1055.79703,651.797969 C1057.40273,650.186953 1057.40273,581.766172 1055.79703,580.155156 C1054.94695,579.302266 1045.69055,579.017969 1019.90484,579.017969 C986.562891,579.017969 985.146094,579.112734 984.201562,580.818516 C983.634844,582.050469 983.257031,594.938594 983.257031,616.355625 C983.257031,645.638203 983.445937,650.186953 984.768281,651.418906 C985.996172,652.745625 990.624375,652.935156 1020.47156,652.935156 C1045.785,652.935156 1054.94695,652.650859 1055.79703,651.797969 Z M1140.80484,651.797969 C1142.41055,650.186953 1142.41055,581.766172 1140.80484,580.155156 C1139.95477,579.302266 1130.69836,579.017969 1104.91266,579.017969 C1071.5707,579.017969 1070.15391,579.112734 1069.20937,580.818516 C1068.64266,582.050469 1068.26484,594.938594 1068.26484,616.355625 C1068.26484,645.638203 1068.45375,650.186953 1069.77609,651.418906 C1071.00398,652.745625 1075.63219,652.935156 1105.47937,652.935156 C1130.79281,652.935156 1139.95477,652.650859 1140.80484,651.797969 Z M120.049922,566.698437 C121.750078,565.750781 121.844531,564.329297 121.844531,530.877031 C121.844531,505.006016 121.561172,495.718984 120.711094,494.866094 C119.105391,493.255078 50.9102344,493.255078 49.3045312,494.866094 C48.4544531,495.718984 48.1710937,505.006016 48.1710937,530.877031 C48.1710937,563.002578 48.2655469,565.750781 49.87125,566.603672 C52.138125,567.930391 117.594141,568.025156 120.049922,566.698437 Z M205.057734,566.698437 C206.757891,565.750781 206.852344,564.329297 206.852344,530.877031 C206.852344,505.006016 206.568984,495.718984 205.718906,494.866094 C204.113203,493.255078 135.918047,493.255078 134.312344,494.866094 C133.462266,495.718984 133.178906,505.006016 133.178906,530.877031 C133.178906,563.002578 133.273359,565.750781 134.879062,566.603672 C137.145937,567.930391 202.601953,568.025156 205.057734,566.698437 Z M290.065547,566.698437 C291.765703,565.750781 291.860156,564.329297 291.860156,530.877031 C291.860156,505.006016 291.576797,495.718984 290.726719,494.866094 C289.121016,493.255078 220.925859,493.255078 219.320156,494.866094 C218.470078,495.718984 218.186719,504.91125 218.186719,530.308437 C218.186719,560.254375 218.375625,564.897891 219.697969,566.129844 C220.925859,567.456562 225.459609,567.646094 254.645625,567.646094 C275.992031,567.646094 288.837656,567.267031 290.065547,566.698437 Z M375.073359,566.698437 C376.773516,565.750781 376.867969,564.329297 376.867969,530.877031 C376.867969,505.006016 376.584609,495.718984 375.734531,494.866094 C374.128828,493.255078 305.933672,493.255078 304.327969,494.866094 C303.477891,495.718984 303.194531,504.91125 303.194531,530.308437 C303.194531,560.254375 303.383437,564.897891 304.705781,566.129844 C305.933672,567.456562 310.467422,567.646094 339.653437,567.646094 C360.999844,567.646094 373.845469,567.267031 375.073359,566.698437 Z M460.742344,566.508906 C462.348047,564.897891 462.348047,496.477109 460.742344,494.866094 C459.136641,493.255078 390.941484,493.255078 389.335781,494.866094 C388.485703,495.718984 388.202344,504.91125 388.202344,530.308437 C388.202344,560.254375 388.39125,564.897891 389.713594,566.129844 C390.941484,567.456562 395.569687,567.646094 425.416875,567.646094 C450.730312,567.646094 459.892266,567.361797 460.742344,566.508906 Z M545.750156,566.508906 C547.355859,564.897891 547.355859,496.477109 545.750156,494.866094 C544.144453,493.255078 475.949297,493.255078 474.343594,494.866094 C473.493516,495.718984 473.210156,504.91125 473.210156,530.308437 C473.210156,560.254375 473.399062,564.897891 474.721406,566.129844 C475.949297,567.456562 480.5775,567.646094 510.424687,567.646094 C535.738125,567.646094 544.900078,567.361797 545.750156,566.508906 Z M630.757969,566.508906 C632.363672,564.897891 632.363672,496.477109 630.757969,494.866094 C629.152266,493.255078 560.957109,493.255078 559.351406,494.866094 C558.501328,495.718984 558.217969,504.91125 558.217969,530.308437 C558.217969,560.254375 558.406875,564.897891 559.729219,566.129844 C560.957109,567.456562 565.585312,567.646094 595.4325,567.646094 C620.745937,567.646094 629.907891,567.361797 630.757969,566.508906 Z M715.765781,566.508906 C717.371484,564.897891 717.371484,496.477109 715.765781,494.866094 C714.160078,493.255078 645.964922,493.255078 644.359219,494.866094 C643.509141,495.718984 643.225781,504.91125 643.225781,530.308437 C643.225781,560.254375 643.414687,564.897891 644.737031,566.129844 C645.964922,567.456562 650.593125,567.646094 680.440312,567.646094 C705.75375,567.646094 714.915703,567.361797 715.765781,566.508906 Z M800.773594,566.508906 C802.379297,564.897891 802.379297,496.477109 800.773594,494.866094 C799.167891,493.255078 730.972734,493.255078 729.367031,494.866094 C728.516953,495.718984 728.233594,504.91125 728.233594,530.308437 C728.233594,560.254375 728.4225,564.897891 729.744844,566.129844 C730.972734,567.456562 735.600937,567.646094 765.448125,567.646094 C790.761562,567.646094 799.923516,567.361797 800.773594,566.508906 Z M885.781406,566.508906 C887.387109,564.897891 887.387109,496.477109 885.781406,494.866094 C884.931328,494.013203 875.674922,493.728906 849.889219,493.728906 C816.547266,493.728906 815.130469,493.823672 814.185937,495.529453 C813.619219,496.761406 813.241406,509.649531 813.241406,531.066562 C813.241406,560.349141 813.430312,564.897891 814.752656,566.129844 C815.980547,567.456562 820.60875,567.646094 850.455937,567.646094 C875.769375,567.646094 884.931328,567.361797 885.781406,566.508906 Z M970.789219,566.508906 C972.394922,564.897891 972.394922,496.477109 970.789219,494.866094 C969.939141,494.013203 960.682734,493.728906 934.897031,493.728906 C901.555078,493.728906 900.138281,493.823672 899.19375,495.529453 C898.627031,496.761406 898.249219,509.649531 898.249219,531.066562 C898.249219,560.349141 898.438125,564.897891 899.760469,566.129844 C900.988359,567.456562 905.616562,567.646094 935.46375,567.646094 C960.777187,567.646094 969.939141,567.361797 970.789219,566.508906 Z M1055.79703,566.508906 C1057.40273,564.897891 1057.40273,496.477109 1055.79703,494.866094 C1054.94695,494.013203 1045.69055,493.728906 1019.90484,493.728906 C986.562891,493.728906 985.146094,493.823672 984.201562,495.529453 C983.634844,496.761406 983.257031,509.649531 983.257031,531.066562 C983.257031,560.349141 983.445937,564.897891 984.768281,566.129844 C985.996172,567.456562 990.624375,567.646094 1020.47156,567.646094 C1045.785,567.646094 1054.94695,567.361797 1055.79703,566.508906 Z M1140.80484,566.508906 C1142.41055,564.897891 1142.41055,496.477109 1140.80484,494.866094 C1139.95477,494.013203 1130.69836,493.728906 1104.91266,493.728906 C1071.5707,493.728906 1070.15391,493.823672 1069.20937,495.529453 C1068.64266,496.761406 1068.26484,509.649531 1068.26484,531.066562 C1068.26484,560.349141 1068.45375,564.897891 1069.77609,566.129844 C1071.00398,567.456562 1075.63219,567.646094 1105.47937,567.646094 C1130.79281,567.646094 1139.95477,567.361797 1140.80484,566.508906 Z M120.049922,481.409375 C121.750078,480.461719 121.844531,479.040234 121.844531,445.587969 C121.844531,419.716953 121.561172,410.429922 120.711094,409.577031 C119.105391,407.966016 50.9102344,407.966016 49.3045312,409.577031 C48.4544531,410.429922 48.1710937,419.716953 48.1710937,445.587969 C48.1710937,477.713516 48.2655469,480.461719 49.87125,481.314609 C52.138125,482.641328 117.594141,482.736094 120.049922,481.409375 Z M205.057734,481.409375 C206.757891,480.461719 206.852344,479.040234 206.852344,445.587969 C206.852344,419.716953 206.568984,410.429922 205.718906,409.577031 C204.113203,407.966016 135.918047,407.966016 134.312344,409.577031 C133.462266,410.429922 133.178906,419.716953 133.178906,445.587969 C133.178906,477.713516 133.273359,480.461719 134.879062,481.314609 C137.145937,482.641328 202.601953,482.736094 205.057734,481.409375 Z M290.065547,481.409375 C291.765703,480.461719 291.860156,479.040234 291.860156,445.587969 C291.860156,419.716953 291.576797,410.429922 290.726719,409.577031 C289.121016,407.966016 220.925859,407.966016 219.320156,409.577031 C218.470078,410.429922 218.186719,419.622187 218.186719,445.019375 C218.186719,474.965312 218.375625,479.608828 219.697969,480.840781 C220.925859,482.1675 225.459609,482.357031 254.645625,482.357031 C275.992031,482.357031 288.837656,481.977969 290.065547,481.409375 Z M375.073359,481.409375 C376.773516,480.461719 376.867969,479.040234 376.867969,445.587969 C376.867969,419.716953 376.584609,410.429922 375.734531,409.577031 C374.128828,407.966016 305.933672,407.966016 304.327969,409.577031 C303.477891,410.429922 303.194531,419.622187 303.194531,445.019375 C303.194531,474.965312 303.383437,479.608828 304.705781,480.840781 C305.933672,482.1675 310.467422,482.357031 339.653437,482.357031 C360.999844,482.357031 373.845469,481.977969 375.073359,481.409375 Z M460.081172,481.409375 C461.781328,480.461719 461.875781,479.040234 461.875781,445.587969 C461.875781,419.716953 461.592422,410.429922 460.742344,409.577031 C459.136641,407.966016 390.941484,407.966016 389.335781,409.577031 C388.485703,410.429922 388.202344,419.622187 388.202344,445.019375 C388.202344,474.965312 388.39125,479.608828 389.713594,480.840781 C390.941484,482.1675 395.475234,482.357031 424.66125,482.357031 C446.007656,482.357031 458.853281,481.977969 460.081172,481.409375 Z M545.088984,481.409375 C546.789141,480.461719 546.883594,479.040234 546.883594,445.587969 C546.883594,419.716953 546.600234,410.429922 545.750156,409.577031 C544.144453,407.966016 475.949297,407.966016 474.343594,409.577031 C473.493516,410.429922 473.210156,419.622187 473.210156,445.019375 C473.210156,474.965312 473.399062,479.608828 474.721406,480.840781 C475.949297,482.1675 480.483047,482.357031 509.669062,482.357031 C531.015469,482.357031 543.861094,481.977969 545.088984,481.409375 Z M630.757969,481.219844 C632.363672,479.608828 632.363672,411.188047 630.757969,409.577031 C629.152266,407.966016 560.957109,407.966016 559.351406,409.577031 C558.501328,410.429922 558.217969,419.622187 558.217969,445.019375 C558.217969,474.965312 558.406875,479.608828 559.729219,480.840781 C560.957109,482.1675 565.585312,482.357031 595.4325,482.357031 C620.745937,482.357031 629.907891,482.072734 630.757969,481.219844 Z M715.765781,481.219844 C717.371484,479.608828 717.371484,411.188047 715.765781,409.577031 C714.160078,407.966016 645.964922,407.966016 644.359219,409.577031 C643.509141,410.429922 643.225781,419.622187 643.225781,445.019375 C643.225781,474.965312 643.414687,479.608828 644.737031,480.840781 C645.964922,482.1675 650.593125,482.357031 680.440312,482.357031 C705.75375,482.357031 714.915703,482.072734 715.765781,481.219844 Z M800.773594,481.219844 C802.379297,479.608828 802.379297,411.188047 800.773594,409.577031 C799.167891,407.966016 730.972734,407.966016 729.367031,409.577031 C728.516953,410.429922 728.233594,419.622187 728.233594,445.019375 C728.233594,474.965312 728.4225,479.608828 729.744844,480.840781 C730.972734,482.1675 735.600937,482.357031 765.448125,482.357031 C790.761562,482.357031 799.923516,482.072734 800.773594,481.219844 Z M885.781406,481.219844 C887.387109,479.608828 887.387109,411.188047 885.781406,409.577031 C884.931328,408.724141 875.674922,408.439844 849.889219,408.439844 C816.547266,408.439844 815.130469,408.534609 814.185937,410.240391 C813.619219,411.472344 813.241406,424.360469 813.241406,445.7775 C813.241406,475.060078 813.430312,479.608828 814.752656,480.840781 C815.980547,482.1675 820.60875,482.357031 850.455937,482.357031 C875.769375,482.357031 884.931328,482.072734 885.781406,481.219844 Z M970.789219,481.219844 C972.394922,479.608828 972.394922,411.188047 970.789219,409.577031 C969.939141,408.724141 960.682734,408.439844 934.897031,408.439844 C901.555078,408.439844 900.138281,408.534609 899.19375,410.240391 C898.627031,411.472344 898.249219,424.360469 898.249219,445.7775 C898.249219,475.060078 898.438125,479.608828 899.760469,480.840781 C900.988359,482.1675 905.616562,482.357031 935.46375,482.357031 C960.777187,482.357031 969.939141,482.072734 970.789219,481.219844 Z M1055.79703,481.219844 C1057.40273,479.608828 1057.40273,411.188047 1055.79703,409.577031 C1054.94695,408.724141 1045.69055,408.439844 1019.90484,408.439844 C986.562891,408.439844 985.146094,408.534609 984.201562,410.240391 C983.634844,411.472344 983.257031,424.360469 983.257031,445.7775 C983.257031,475.060078 983.445937,479.608828 984.768281,480.840781 C985.996172,482.1675 990.624375,482.357031 1020.47156,482.357031 C1045.785,482.357031 1054.94695,482.072734 1055.79703,481.219844 Z M1140.80484,481.219844 C1142.41055,479.608828 1142.41055,411.188047 1140.80484,409.577031 C1139.95477,408.724141 1130.69836,408.439844 1104.91266,408.439844 C1071.5707,408.439844 1070.15391,408.534609 1069.20937,410.240391 C1068.64266,411.472344 1068.26484,424.360469 1068.26484,445.7775 C1068.26484,475.060078 1068.45375,479.608828 1069.77609,480.840781 C1071.00398,482.1675 1075.63219,482.357031 1105.47937,482.357031 C1130.79281,482.357031 1139.95477,482.072734 1140.80484,481.219844 Z M120.049922,396.120312 C121.750078,395.172656 121.844531,393.751172 121.844531,360.298906 C121.844531,334.427891 121.561172,325.140859 120.711094,324.287969 C119.105391,322.676953 50.9102344,322.676953 49.3045312,324.287969 C48.4544531,325.140859 48.1710937,334.427891 48.1710937,360.298906 C48.1710937,392.424453 48.2655469,395.172656 49.87125,396.025547 C52.138125,397.352266 117.594141,397.447031 120.049922,396.120312 Z M205.057734,396.120312 C206.757891,395.172656 206.852344,393.751172 206.852344,360.298906 C206.852344,334.427891 206.568984,325.140859 205.718906,324.287969 C204.113203,322.676953 135.918047,322.676953 134.312344,324.287969 C133.462266,325.140859 133.178906,334.427891 133.178906,360.298906 C133.178906,392.424453 133.273359,395.172656 134.879062,396.025547 C137.145937,397.352266 202.601953,397.447031 205.057734,396.120312 Z M290.065547,396.120312 C291.765703,395.172656 291.860156,393.751172 291.860156,360.298906 C291.860156,334.427891 291.576797,325.140859 290.726719,324.287969 C289.121016,322.676953 220.925859,322.676953 219.320156,324.287969 C218.470078,325.140859 218.186719,334.333125 218.186719,359.730312 C218.186719,389.67625 218.375625,394.319766 219.697969,395.551719 C220.925859,396.878437 225.459609,397.067969 254.645625,397.067969 C275.992031,397.067969 288.837656,396.688906 290.065547,396.120312 Z M375.073359,396.120312 C376.773516,395.172656 376.867969,393.751172 376.867969,360.298906 C376.867969,334.427891 376.584609,325.140859 375.734531,324.287969 C374.128828,322.676953 305.933672,322.676953 304.327969,324.287969 C303.477891,325.140859 303.194531,334.333125 303.194531,359.730312 C303.194531,389.67625 303.383437,394.319766 304.705781,395.551719 C305.933672,396.878437 310.467422,397.067969 339.653437,397.067969 C360.999844,397.067969 373.845469,396.688906 375.073359,396.120312 Z M460.081172,396.120312 C461.781328,395.172656 461.875781,393.751172 461.875781,360.298906 C461.875781,334.427891 461.592422,325.140859 460.742344,324.287969 C459.136641,322.676953 390.941484,322.676953 389.335781,324.287969 C388.485703,325.140859 388.202344,334.333125 388.202344,359.730312 C388.202344,389.67625 388.39125,394.319766 389.713594,395.551719 C390.941484,396.878437 395.475234,397.067969 424.66125,397.067969 C446.007656,397.067969 458.853281,396.688906 460.081172,396.120312 Z M545.088984,396.120312 C546.789141,395.172656 546.883594,393.751172 546.883594,360.298906 C546.883594,334.427891 546.600234,325.140859 545.750156,324.287969 C544.144453,322.676953 475.949297,322.676953 474.343594,324.287969 C473.493516,325.140859 473.210156,334.333125 473.210156,359.730312 C473.210156,389.67625 473.399062,394.319766 474.721406,395.551719 C475.949297,396.878437 480.483047,397.067969 509.669062,397.067969 C531.015469,397.067969 543.861094,396.688906 545.088984,396.120312 Z M630.096797,396.120312 C631.796953,395.172656 631.891406,393.751172 631.891406,360.298906 C631.891406,334.427891 631.608047,325.140859 630.757969,324.287969 C629.152266,322.676953 560.957109,322.676953 559.351406,324.287969 C558.501328,325.140859 558.217969,334.333125 558.217969,359.730312 C558.217969,389.67625 558.406875,394.319766 559.729219,395.551719 C560.957109,396.878437 565.490859,397.067969 594.676875,397.067969 C616.023281,397.067969 628.868906,396.688906 630.096797,396.120312 Z M715.104609,396.120312 C716.804766,395.172656 716.899219,393.751172 716.899219,360.298906 C716.899219,334.427891 716.615859,325.140859 715.765781,324.287969 C714.160078,322.676953 645.964922,322.676953 644.359219,324.287969 C643.509141,325.140859 643.225781,334.333125 643.225781,359.730312 C643.225781,389.67625 643.414687,394.319766 644.737031,395.551719 C645.964922,396.878437 650.498672,397.067969 679.684688,397.067969 C701.031094,397.067969 713.876719,396.688906 715.104609,396.120312 Z M800.112422,396.120312 C801.812578,395.172656 801.907031,393.751172 801.907031,360.298906 C801.907031,334.427891 801.623672,325.140859 800.773594,324.287969 C799.167891,322.676953 730.972734,322.676953 729.367031,324.287969 C728.516953,325.140859 728.233594,334.333125 728.233594,359.730312 C728.233594,389.67625 728.4225,394.319766 729.744844,395.551719 C730.972734,396.878437 735.506484,397.067969 764.6925,397.067969 C786.038906,397.067969 798.884531,396.688906 800.112422,396.120312 Z M885.120234,396.120312 C886.820391,395.172656 886.914844,393.751172 886.914844,360.298906 C886.914844,334.427891 886.631484,325.140859 885.781406,324.287969 C884.175703,322.676953 815.980547,322.676953 814.374844,324.287969 C813.524766,325.140859 813.241406,334.333125 813.241406,359.730312 C813.241406,389.67625 813.430312,394.319766 814.752656,395.551719 C815.980547,396.878437 820.514297,397.067969 849.700312,397.067969 C871.046719,397.067969 883.892344,396.688906 885.120234,396.120312 Z M970.789219,395.930781 C972.394922,394.319766 972.394922,325.898984 970.789219,324.287969 C969.939141,323.435078 960.682734,323.150781 934.897031,323.150781 C901.555078,323.150781 900.138281,323.245547 899.19375,324.951328 C898.627031,326.183281 898.249219,339.071406 898.249219,360.488437 C898.249219,389.771016 898.438125,394.319766 899.760469,395.551719 C900.988359,396.878437 905.616562,397.067969 935.46375,397.067969 C960.777187,397.067969 969.939141,396.783672 970.789219,395.930781 Z M1055.79703,395.930781 C1057.40273,394.319766 1057.40273,325.898984 1055.79703,324.287969 C1054.94695,323.435078 1045.69055,323.150781 1019.90484,323.150781 C986.562891,323.150781 985.146094,323.245547 984.201562,324.951328 C983.634844,326.183281 983.257031,339.071406 983.257031,360.488437 C983.257031,389.771016 983.445937,394.319766 984.768281,395.551719 C985.996172,396.878437 990.624375,397.067969 1020.47156,397.067969 C1045.785,397.067969 1054.94695,396.783672 1055.79703,395.930781 Z M1140.80484,395.930781 C1142.41055,394.319766 1142.41055,325.898984 1140.80484,324.287969 C1139.95477,323.435078 1130.69836,323.150781 1104.91266,323.150781 C1071.5707,323.150781 1070.15391,323.245547 1069.20937,324.951328 C1068.64266,326.183281 1068.26484,339.071406 1068.26484,360.488437 C1068.26484,389.771016 1068.45375,394.319766 1069.77609,395.551719 C1071.00398,396.878437 1075.63219,397.067969 1105.47937,397.067969 C1130.79281,397.067969 1139.95477,396.783672 1140.80484,395.930781 Z M120.049922,310.83125 C121.750078,309.883594 121.844531,308.462109 121.844531,275.009844 C121.844531,249.138828 121.561172,239.851797 120.711094,238.998906 C119.105391,237.387891 50.9102344,237.387891 49.3045312,238.998906 C48.4544531,239.851797 48.1710937,249.044062 48.1710937,274.44125 C48.1710937,304.387187 48.36,309.030703 49.6823437,310.262656 C50.9102344,311.589375 55.4439844,311.778906 84.63,311.778906 C105.976406,311.778906 118.822031,311.399844 120.049922,310.83125 Z M205.057734,310.83125 C206.757891,309.883594 206.852344,308.462109 206.852344,275.009844 C206.852344,249.138828 206.568984,239.851797 205.718906,238.998906 C204.113203,237.387891 135.918047,237.387891 134.312344,238.998906 C133.462266,239.851797 133.178906,249.044062 133.178906,274.44125 C133.178906,304.387187 133.367812,309.030703 134.690156,310.262656 C135.918047,311.589375 140.451797,311.778906 169.637812,311.778906 C190.984219,311.778906 203.829844,311.399844 205.057734,310.83125 Z M290.065547,310.83125 C291.765703,309.883594 291.860156,308.462109 291.860156,275.009844 C291.860156,249.138828 291.576797,239.851797 290.726719,238.998906 C289.121016,237.387891 220.925859,237.387891 219.320156,238.998906 C218.470078,239.851797 218.186719,249.044062 218.186719,274.44125 C218.186719,304.387187 218.375625,309.030703 219.697969,310.262656 C220.925859,311.589375 225.459609,311.778906 254.645625,311.778906 C275.992031,311.778906 288.837656,311.399844 290.065547,310.83125 Z M375.073359,310.83125 C376.773516,309.883594 376.867969,308.462109 376.867969,275.009844 C376.867969,249.138828 376.584609,239.851797 375.734531,238.998906 C374.128828,237.387891 305.933672,237.387891 304.327969,238.998906 C303.477891,239.851797 303.194531,249.044062 303.194531,274.44125 C303.194531,304.387187 303.383437,309.030703 304.705781,310.262656 C305.933672,311.589375 310.467422,311.778906 339.653437,311.778906 C360.999844,311.778906 373.845469,311.399844 375.073359,310.83125 Z M460.081172,310.83125 C461.781328,309.883594 461.875781,308.462109 461.875781,275.009844 C461.875781,249.138828 461.592422,239.851797 460.742344,238.998906 C459.136641,237.387891 390.941484,237.387891 389.335781,238.998906 C388.485703,239.851797 388.202344,249.044062 388.202344,274.44125 C388.202344,304.387187 388.39125,309.030703 389.713594,310.262656 C390.941484,311.589375 395.475234,311.778906 424.66125,311.778906 C446.007656,311.778906 458.853281,311.399844 460.081172,310.83125 Z M545.088984,310.83125 C546.789141,309.883594 546.883594,308.462109 546.883594,275.009844 C546.883594,249.138828 546.600234,239.851797 545.750156,238.998906 C544.144453,237.387891 475.949297,237.387891 474.343594,238.998906 C473.493516,239.851797 473.210156,249.044062 473.210156,274.44125 C473.210156,304.387187 473.399062,309.030703 474.721406,310.262656 C475.949297,311.589375 480.483047,311.778906 509.669062,311.778906 C531.015469,311.778906 543.861094,311.399844 545.088984,310.83125 Z M630.096797,310.83125 C631.796953,309.883594 631.891406,308.462109 631.891406,275.009844 C631.891406,249.138828 631.608047,239.851797 630.757969,238.998906 C629.152266,237.387891 560.957109,237.387891 559.351406,238.998906 C558.501328,239.851797 558.217969,249.044062 558.217969,274.44125 C558.217969,304.387187 558.406875,309.030703 559.729219,310.262656 C560.957109,311.589375 565.490859,311.778906 594.676875,311.778906 C616.023281,311.778906 628.868906,311.399844 630.096797,310.83125 Z M715.104609,310.83125 C716.804766,309.883594 716.899219,308.462109 716.899219,275.009844 C716.899219,249.138828 716.615859,239.851797 715.765781,238.998906 C714.160078,237.387891 645.964922,237.387891 644.359219,238.998906 C643.509141,239.851797 643.225781,249.044062 643.225781,274.44125 C643.225781,304.387187 643.414687,309.030703 644.737031,310.262656 C645.964922,311.589375 650.498672,311.778906 679.684688,311.778906 C701.031094,311.778906 713.876719,311.399844 715.104609,310.83125 Z M800.112422,310.83125 C801.812578,309.883594 801.907031,308.462109 801.907031,275.009844 C801.907031,249.138828 801.623672,239.851797 800.773594,238.998906 C799.167891,237.387891 730.972734,237.387891 729.367031,238.998906 C728.516953,239.851797 728.233594,249.044062 728.233594,274.44125 C728.233594,304.387187 728.4225,309.030703 729.744844,310.262656 C730.972734,311.589375 735.506484,311.778906 764.6925,311.778906 C786.038906,311.778906 798.884531,311.399844 800.112422,310.83125 Z M885.120234,310.83125 C886.820391,309.883594 886.914844,308.462109 886.914844,275.009844 C886.914844,249.138828 886.631484,239.851797 885.781406,238.998906 C884.175703,237.387891 815.980547,237.387891 814.374844,238.998906 C813.524766,239.851797 813.241406,249.044062 813.241406,274.44125 C813.241406,304.387187 813.430312,309.030703 814.752656,310.262656 C815.980547,311.589375 820.514297,311.778906 849.700312,311.778906 C871.046719,311.778906 883.892344,311.399844 885.120234,310.83125 Z M970.128047,310.83125 C971.828203,309.883594 971.922656,308.462109 971.922656,275.009844 C971.922656,249.138828 971.639297,239.851797 970.789219,238.998906 C969.939141,238.146016 960.682734,237.861719 934.897031,237.861719 C901.555078,237.861719 900.138281,237.956484 899.19375,239.662266 C898.627031,240.894219 898.249219,253.782344 898.249219,275.199375 C898.249219,304.481953 898.438125,309.030703 899.760469,310.262656 C900.988359,311.589375 905.522109,311.778906 934.708125,311.778906 C956.054531,311.778906 968.900156,311.399844 970.128047,310.83125 Z M1055.13586,310.83125 C1056.83602,309.883594 1056.93047,308.462109 1056.93047,275.009844 C1056.93047,249.138828 1056.64711,239.851797 1055.79703,238.998906 C1054.94695,238.146016 1045.69055,237.861719 1019.90484,237.861719 C986.562891,237.861719 985.146094,237.956484 984.201562,239.662266 C983.634844,240.894219 983.257031,253.782344 983.257031,275.199375 C983.257031,304.481953 983.445937,309.030703 984.768281,310.262656 C985.996172,311.589375 990.529922,311.778906 1019.71594,311.778906 C1041.06234,311.778906 1053.90797,311.399844 1055.13586,310.83125 Z M1140.80484,310.641719 C1142.41055,309.030703 1142.41055,240.609922 1140.80484,238.998906 C1139.95477,238.146016 1130.69836,237.861719 1104.91266,237.861719 C1071.5707,237.861719 1070.15391,237.956484 1069.20937,239.662266 C1068.64266,240.894219 1068.26484,253.782344 1068.26484,275.199375 C1068.26484,304.481953 1068.45375,309.030703 1069.77609,310.262656 C1071.00398,311.589375 1075.63219,311.778906 1105.47937,311.778906 C1130.79281,311.778906 1139.95477,311.494609 1140.80484,310.641719 Z M120.049922,225.542187 C121.750078,224.594531 121.844531,223.173047 121.844531,189.720781 C121.844531,163.849766 121.561172,154.562734 120.711094,153.709844 C119.105391,152.098828 50.9102344,152.098828 49.3045312,153.709844 C48.4544531,154.562734 48.1710937,163.755 48.1710937,189.152187 C48.1710937,219.098125 48.36,223.741641 49.6823437,224.973594 C50.9102344,226.300312 55.4439844,226.489844 84.63,226.489844 C105.976406,226.489844 118.822031,226.110781 120.049922,225.542187 Z M205.057734,225.542187 C206.757891,224.594531 206.852344,223.173047 206.852344,189.720781 C206.852344,163.849766 206.568984,154.562734 205.718906,153.709844 C204.113203,152.098828 135.918047,152.098828 134.312344,153.709844 C133.462266,154.562734 133.178906,163.755 133.178906,189.152187 C133.178906,219.098125 133.367812,223.741641 134.690156,224.973594 C135.918047,226.300312 140.451797,226.489844 169.637812,226.489844 C190.984219,226.489844 203.829844,226.110781 205.057734,225.542187 Z M290.065547,225.542187 C291.765703,224.594531 291.860156,223.173047 291.860156,189.720781 C291.860156,163.849766 291.576797,154.562734 290.726719,153.709844 C289.121016,152.098828 220.925859,152.098828 219.320156,153.709844 C218.470078,154.562734 218.186719,163.755 218.186719,189.152187 C218.186719,219.098125 218.375625,223.741641 219.697969,224.973594 C220.925859,226.300312 225.459609,226.489844 254.645625,226.489844 C275.992031,226.489844 288.837656,226.110781 290.065547,225.542187 Z M375.073359,225.542187 C376.773516,224.594531 376.867969,223.173047 376.867969,189.720781 C376.867969,163.849766 376.584609,154.562734 375.734531,153.709844 C374.128828,152.098828 305.933672,152.098828 304.327969,153.709844 C303.477891,154.562734 303.194531,163.755 303.194531,189.152187 C303.194531,219.098125 303.383437,223.741641 304.705781,224.973594 C305.933672,226.300312 310.467422,226.489844 339.653437,226.489844 C360.999844,226.489844 373.845469,226.110781 375.073359,225.542187 Z M460.081172,225.542187 C461.781328,224.594531 461.875781,223.173047 461.875781,189.720781 C461.875781,163.849766 461.592422,154.562734 460.742344,153.709844 C459.136641,152.098828 390.941484,152.098828 389.335781,153.709844 C388.485703,154.562734 388.202344,163.755 388.202344,189.152187 C388.202344,219.098125 388.39125,223.741641 389.713594,224.973594 C390.941484,226.300312 395.475234,226.489844 424.66125,226.489844 C446.007656,226.489844 458.853281,226.110781 460.081172,225.542187 Z M545.088984,225.542187 C546.789141,224.594531 546.883594,223.173047 546.883594,189.720781 C546.883594,163.849766 546.600234,154.562734 545.750156,153.709844 C544.144453,152.098828 475.949297,152.098828 474.343594,153.709844 C473.493516,154.562734 473.210156,163.755 473.210156,189.152187 C473.210156,219.098125 473.399062,223.741641 474.721406,224.973594 C475.949297,226.300312 480.483047,226.489844 509.669062,226.489844 C531.015469,226.489844 543.861094,226.110781 545.088984,225.542187 Z M630.096797,225.542187 C631.796953,224.594531 631.891406,223.173047 631.891406,189.720781 C631.891406,163.849766 631.608047,154.562734 630.757969,153.709844 C629.152266,152.098828 560.957109,152.098828 559.351406,153.709844 C558.501328,154.562734 558.217969,163.755 558.217969,189.152187 C558.217969,219.098125 558.406875,223.741641 559.729219,224.973594 C560.957109,226.300312 565.490859,226.489844 594.676875,226.489844 C616.023281,226.489844 628.868906,226.110781 630.096797,225.542187 Z M715.104609,225.542187 C716.804766,224.594531 716.899219,223.173047 716.899219,189.720781 C716.899219,163.849766 716.615859,154.562734 715.765781,153.709844 C714.160078,152.098828 645.964922,152.098828 644.359219,153.709844 C643.509141,154.562734 643.225781,163.755 643.225781,189.152187 C643.225781,219.098125 643.414687,223.741641 644.737031,224.973594 C645.964922,226.300312 650.498672,226.489844 679.684688,226.489844 C701.031094,226.489844 713.876719,226.110781 715.104609,225.542187 Z M800.112422,225.542187 C801.812578,224.594531 801.907031,223.173047 801.907031,189.720781 C801.907031,163.849766 801.623672,154.562734 800.773594,153.709844 C799.167891,152.098828 730.972734,152.098828 729.367031,153.709844 C728.516953,154.562734 728.233594,163.755 728.233594,189.152187 C728.233594,219.098125 728.4225,223.741641 729.744844,224.973594 C730.972734,226.300312 735.506484,226.489844 764.6925,226.489844 C786.038906,226.489844 798.884531,226.110781 800.112422,225.542187 Z M885.120234,225.542187 C886.820391,224.594531 886.914844,223.173047 886.914844,189.720781 C886.914844,163.849766 886.631484,154.562734 885.781406,153.709844 C884.175703,152.098828 815.980547,152.098828 814.374844,153.709844 C813.524766,154.562734 813.241406,163.755 813.241406,189.152187 C813.241406,219.098125 813.430312,223.741641 814.752656,224.973594 C815.980547,226.300312 820.514297,226.489844 849.700312,226.489844 C871.046719,226.489844 883.892344,226.110781 885.120234,225.542187 Z M970.128047,225.542187 C971.828203,224.594531 971.922656,223.173047 971.922656,189.720781 C971.922656,163.849766 971.639297,154.562734 970.789219,153.709844 C969.183516,152.098828 900.988359,152.098828 899.382656,153.709844 C898.532578,154.562734 898.249219,163.755 898.249219,189.152187 C898.249219,219.098125 898.438125,223.741641 899.760469,224.973594 C900.988359,226.300312 905.522109,226.489844 934.708125,226.489844 C956.054531,226.489844 968.900156,226.110781 970.128047,225.542187 Z M1055.13586,225.542187 C1056.83602,224.594531 1056.93047,223.173047 1056.93047,189.720781 C1056.93047,163.849766 1056.64711,154.562734 1055.79703,153.709844 C1054.94695,152.856953 1045.69055,152.572656 1019.90484,152.572656 C986.562891,152.572656 985.146094,152.667422 984.201562,154.373203 C983.634844,155.605156 983.257031,168.493281 983.257031,189.910312 C983.257031,219.192891 983.445937,223.741641 984.768281,224.973594 C985.996172,226.300312 990.529922,226.489844 1019.71594,226.489844 C1041.06234,226.489844 1053.90797,226.110781 1055.13586,225.542187 Z M1140.14367,225.542187 C1141.84383,224.594531 1141.93828,223.173047 1141.93828,189.720781 C1141.93828,163.849766 1141.65492,154.562734 1140.80484,153.709844 C1139.95477,152.856953 1130.69836,152.572656 1104.91266,152.572656 C1071.5707,152.572656 1070.15391,152.667422 1069.20937,154.373203 C1068.64266,155.605156 1068.26484,168.493281 1068.26484,189.910312 C1068.26484,219.192891 1068.45375,223.741641 1069.77609,224.973594 C1071.00398,226.300312 1075.53773,226.489844 1104.72375,226.489844 C1126.07016,226.489844 1138.91578,226.110781 1140.14367,225.542187 Z M120.049922,140.253125 C121.750078,139.305469 121.844531,137.883984 121.844531,104.431719 C121.844531,78.5607031 121.561172,69.2736719 120.711094,68.4207812 C119.105391,66.8097656 50.9102344,66.8097656 49.3045312,68.4207812 C48.4544531,69.2736719 48.1710937,78.4659375 48.1710937,103.863125 C48.1710937,133.809062 48.36,138.452578 49.6823437,139.684531 C50.9102344,141.01125 55.4439844,141.200781 84.63,141.200781 C105.976406,141.200781 118.822031,140.821719 120.049922,140.253125 Z M205.057734,140.253125 C206.757891,139.305469 206.852344,137.883984 206.852344,104.431719 C206.852344,78.5607031 206.568984,69.2736719 205.718906,68.4207812 C204.113203,66.8097656 135.918047,66.8097656 134.312344,68.4207812 C133.462266,69.2736719 133.178906,78.4659375 133.178906,103.863125 C133.178906,133.809062 133.367812,138.452578 134.690156,139.684531 C135.918047,141.01125 140.451797,141.200781 169.637812,141.200781 C190.984219,141.200781 203.829844,140.821719 205.057734,140.253125 Z M290.065547,140.253125 C291.765703,139.305469 291.860156,137.883984 291.860156,104.431719 C291.860156,78.5607031 291.576797,69.2736719 290.726719,68.4207812 C289.121016,66.8097656 220.925859,66.8097656 219.320156,68.4207812 C218.470078,69.2736719 218.186719,78.4659375 218.186719,103.863125 C218.186719,133.809062 218.375625,138.452578 219.697969,139.684531 C220.925859,141.01125 225.459609,141.200781 254.645625,141.200781 C275.992031,141.200781 288.837656,140.821719 290.065547,140.253125 Z M375.073359,140.253125 C376.773516,139.305469 376.867969,137.883984 376.867969,104.431719 C376.867969,78.5607031 376.584609,69.2736719 375.734531,68.4207812 C374.128828,66.8097656 305.933672,66.8097656 304.327969,68.4207812 C303.477891,69.2736719 303.194531,78.4659375 303.194531,103.863125 C303.194531,133.809062 303.383437,138.452578 304.705781,139.684531 C305.933672,141.01125 310.467422,141.200781 339.653437,141.200781 C360.999844,141.200781 373.845469,140.821719 375.073359,140.253125 Z M460.081172,140.253125 C461.781328,139.305469 461.875781,137.883984 461.875781,104.431719 C461.875781,78.5607031 461.592422,69.2736719 460.742344,68.4207812 C459.136641,66.8097656 390.941484,66.8097656 389.335781,68.4207812 C388.485703,69.2736719 388.202344,78.4659375 388.202344,103.863125 C388.202344,133.809062 388.39125,138.452578 389.713594,139.684531 C390.941484,141.01125 395.475234,141.200781 424.66125,141.200781 C446.007656,141.200781 458.853281,140.821719 460.081172,140.253125 Z M545.088984,140.253125 C546.789141,139.305469 546.883594,137.883984 546.883594,104.431719 C546.883594,78.5607031 546.600234,69.2736719 545.750156,68.4207812 C544.144453,66.8097656 475.949297,66.8097656 474.343594,68.4207812 C473.493516,69.2736719 473.210156,78.4659375 473.210156,103.863125 C473.210156,133.809062 473.399062,138.452578 474.721406,139.684531 C475.949297,141.01125 480.483047,141.200781 509.669062,141.200781 C531.015469,141.200781 543.861094,140.821719 545.088984,140.253125 Z M630.096797,140.253125 C631.796953,139.305469 631.891406,137.883984 631.891406,104.431719 C631.891406,78.5607031 631.608047,69.2736719 630.757969,68.4207812 C629.152266,66.8097656 560.957109,66.8097656 559.351406,68.4207812 C558.501328,69.2736719 558.217969,78.4659375 558.217969,103.863125 C558.217969,133.809062 558.406875,138.452578 559.729219,139.684531 C560.957109,141.01125 565.490859,141.200781 594.676875,141.200781 C616.023281,141.200781 628.868906,140.821719 630.096797,140.253125 Z M715.104609,140.253125 C716.804766,139.305469 716.899219,137.883984 716.899219,104.431719 C716.899219,78.5607031 716.615859,69.2736719 715.765781,68.4207812 C714.160078,66.8097656 645.964922,66.8097656 644.359219,68.4207812 C643.509141,69.2736719 643.225781,78.4659375 643.225781,103.863125 C643.225781,133.809062 643.414687,138.452578 644.737031,139.684531 C645.964922,141.01125 650.498672,141.200781 679.684688,141.200781 C701.031094,141.200781 713.876719,140.821719 715.104609,140.253125 Z M800.112422,140.253125 C801.812578,139.305469 801.907031,137.883984 801.907031,104.431719 C801.907031,78.5607031 801.623672,69.2736719 800.773594,68.4207812 C799.167891,66.8097656 730.972734,66.8097656 729.367031,68.4207812 C728.516953,69.2736719 728.233594,78.4659375 728.233594,103.863125 C728.233594,133.809062 728.4225,138.452578 729.744844,139.684531 C730.972734,141.01125 735.506484,141.200781 764.6925,141.200781 C786.038906,141.200781 798.884531,140.821719 800.112422,140.253125 Z M885.120234,140.253125 C886.820391,139.305469 886.914844,137.883984 886.914844,104.431719 C886.914844,78.5607031 886.631484,69.2736719 885.781406,68.4207812 C884.175703,66.8097656 815.980547,66.8097656 814.374844,68.4207812 C813.524766,69.2736719 813.241406,78.4659375 813.241406,103.863125 C813.241406,133.809062 813.430312,138.452578 814.752656,139.684531 C815.980547,141.01125 820.514297,141.200781 849.700312,141.200781 C871.046719,141.200781 883.892344,140.821719 885.120234,140.253125 Z M970.128047,140.253125 C971.828203,139.305469 971.922656,137.883984 971.922656,104.431719 C971.922656,78.5607031 971.639297,69.2736719 970.789219,68.4207812 C969.183516,66.8097656 900.988359,66.8097656 899.382656,68.4207812 C898.532578,69.2736719 898.249219,78.4659375 898.249219,103.863125 C898.249219,133.809062 898.438125,138.452578 899.760469,139.684531 C900.988359,141.01125 905.522109,141.200781 934.708125,141.200781 C956.054531,141.200781 968.900156,140.821719 970.128047,140.253125 Z M1055.13586,140.253125 C1056.83602,139.305469 1056.93047,137.883984 1056.93047,104.431719 C1056.93047,78.5607031 1056.64711,69.2736719 1055.79703,68.4207812 C1054.94695,67.5678906 1045.69055,67.2835937 1019.90484,67.2835937 C986.562891,67.2835937 985.146094,67.3783594 984.201562,69.0841406 C983.634844,70.3160937 983.257031,83.2042187 983.257031,104.62125 C983.257031,133.903828 983.445937,138.452578 984.768281,139.684531 C985.996172,141.01125 990.529922,141.200781 1019.71594,141.200781 C1041.06234,141.200781 1053.90797,140.821719 1055.13586,140.253125 Z M1140.14367,140.253125 C1141.84383,139.305469 1141.93828,137.883984 1141.93828,104.431719 C1141.93828,78.5607031 1141.65492,69.2736719 1140.80484,68.4207812 C1139.95477,67.5678906 1130.69836,67.2835937 1104.91266,67.2835937 C1071.5707,67.2835937 1070.15391,67.3783594 1069.20937,69.0841406 C1068.64266,70.3160937 1068.26484,83.2042187 1068.26484,104.62125 C1068.26484,133.903828 1068.45375,138.452578 1069.77609,139.684531 C1071.00398,141.01125 1075.53773,141.200781 1104.72375,141.200781 C1126.07016,141.200781 1138.91578,140.821719 1140.14367,140.253125 Z" id="Shape"></path>
            </g>
        </g>
        <g id="GraphQL_Logo" transform="translate(53.000000, 31.000000)" fill="#57425E" fill-rule="nonzero">
            <polygon id="Rectangle-path" transform="translate(124.920691, 179.670115) rotate(-149.999272) translate(-124.920691, -179.670115) " points="115.079479 -4.98857717 134.761903 -4.98857717 134.761903 364.328808 115.079479 364.328808"></polygon>
            <polygon id="Rectangle-path" points="17.5485714 309.25102 397.332857 309.25102 397.332857 328.391837 17.5485714 328.391837"></polygon>
            <polygon id="Rectangle-path" transform="translate(124.965867, 365.045232) rotate(-149.999272) translate(-124.965867, -365.045232) " points="15.2897087 355.475034 234.642026 355.475034 234.642026 374.615429 15.2897087 374.615429"></polygon>
            <polygon id="Rectangle-path" transform="translate(289.986941, 87.066385) rotate(-149.999272) translate(-289.986941, -87.066385) " points="180.310783 77.4961871 399.6631 77.4961871 399.6631 96.6365823 180.310783 96.6365823"></polygon>
            <polygon id="Rectangle-path" transform="translate(125.018513, 86.993511) rotate(-120.000728) translate(-125.018513, -86.993511) " points="115.177301 -19.6623055 134.859725 -19.6623055 134.859725 193.649328 115.177301 193.649328"></polygon>
            <polygon id="Rectangle-path" transform="translate(290.121994, 179.673574) rotate(-120.000728) translate(-290.121994, -179.673574) " points="100.234029 170.103377 480.009959 170.103377 480.009959 189.243772 100.234029 189.243772"></polygon>
            <polygon id="Rectangle-path" points="32.6071429 119.341837 52.29 119.341837 52.29 332.658163 32.6071429 332.658163"></polygon>
            <polygon id="Rectangle-path" points="362.71 119.341837 382.392857 119.341837 382.392857 332.658163 362.71 332.658163"></polygon>
            <polygon id="Rectangle-path" transform="translate(289.986111, 364.938804) rotate(-120.000728) translate(-289.986111, -364.938804) " points="281.389872 272.177069 298.582351 272.177069 298.582351 457.700539 281.389872 457.700539"></polygon>
            <path d="M408.478571,338.884694 C397.095714,358.140816 371.721429,364.713265 351.92,353.643878 C332.118571,342.57449 325.36,317.89898 336.742857,298.642857 C348.125714,279.386735 373.5,272.814286 393.301429,283.883673 C413.221429,295.068367 419.98,319.628571 408.478571,338.884694" id="Shape"></path>
            <path d="M78.1385714,153.357143 C66.7557143,172.613265 41.3814286,179.185714 21.58,168.116327 C1.77857143,157.046939 -4.98,132.371429 6.40285714,113.115306 C17.7857143,93.8591837 43.16,87.2867347 62.9614286,98.3561224 C82.7628571,109.540816 89.5214286,134.10102 78.1385714,153.357143" id="Shape"></path>
            <path d="M6.52142857,338.884694 C-4.86142857,319.628571 1.89714286,295.068367 21.6985714,283.883673 C41.5,272.814286 66.7557143,279.386735 78.2571429,298.642857 C89.64,317.89898 82.8814286,342.459184 63.08,353.643878 C43.16,364.713265 17.9042857,358.140816 6.52142857,338.884694" id="Shape"></path>
            <path d="M336.861429,153.357143 C325.478571,134.10102 332.237143,109.540816 352.038571,98.3561224 C371.84,87.2867347 397.095714,93.8591837 408.597143,113.115306 C419.98,132.371429 413.221429,156.931633 393.42,168.116327 C373.618571,179.185714 348.244286,172.613265 336.861429,153.357143" id="Shape"></path>
            <path d="M207.5,451.769388 C184.615714,451.769388 166.118571,433.781633 166.118571,411.527551 C166.118571,389.273469 184.615714,371.285714 207.5,371.285714 C230.384286,371.285714 248.881429,389.273469 248.881429,411.527551 C248.881429,433.666327 230.384286,451.769388 207.5,451.769388" id="Shape"></path>
            <path d="M207.5,80.7142857 C184.615714,80.7142857 166.118571,62.7265306 166.118571,40.472449 C166.118571,18.2183673 184.615714,0.230612245 207.5,0.230612245 C230.384286,0.230612245 248.881429,18.2183673 248.881429,40.472449 C248.881429,62.7265306 230.384286,80.7142857 207.5,80.7142857" id="Shape"></path>
        </g>
    </g>
</svg>