<?xml version="1.0" encoding="UTF-8"?>
<svg width="520px" height="520px" viewBox="0 0 520 520" version="1.1" xmlns="http://www.w3.org/2000/svg" xmlns:xlink="http://www.w3.org/1999/xlink">
    <title>graphql highlight</title>
    <g id="graphql-highlight" stroke="none" stroke-width="1" fill="none" fill-rule="evenodd">
        <rect fill="#FFFFFF" x="0" y="0" width="520" height="520"></rect>
        <g id="GraphQL_Logo" transform="translate(49.000000, 36.000000)" fill="#000000" fill-rule="nonzero">
            <polygon id="Rectangle-path" transform="translate(124.920691, 179.670115) rotate(-149.999272) translate(-124.920691, -179.670115) " points="115.079479 -4.98857717 134.761903 -4.98857717 134.761903 364.328808 115.079479 364.328808"></polygon>
            <polygon id="Rectangle-path" points="17.5485714 309.25102 397.332857 309.25102 397.332857 328.391837 17.5485714 328.391837"></polygon>
            <polygon id="Rectangle-path" transform="translate(124.965867, 365.045232) rotate(-149.999272) translate(-124.965867, -365.045232) " points="15.2897087 355.475034 234.642026 355.475034 234.642026 374.615429 15.2897087 374.615429"></polygon>
            <polygon id="Rectangle-path" transform="translate(289.986941, 87.066385) rotate(-149.999272) translate(-289.986941, -87.066385) " points="180.310783 77.4961871 399.6631 77.4961871 399.6631 96.6365823 180.310783 96.6365823"></polygon>
            <polygon id="Rectangle-path" transform="translate(125.018513, 86.993511) rotate(-120.000728) translate(-125.018513, -86.993511) " points="115.177301 -19.6623055 134.859725 -19.6623055 134.859725 193.649328 115.177301 193.649328"></polygon>
            <polygon id="Rectangle-path" transform="translate(290.121994, 179.673574) rotate(-120.000728) translate(-290.121994, -179.673574) " points="100.234029 170.103377 480.009959 170.103377 480.009959 189.243772 100.234029 189.243772"></polygon>
            <polygon id="Rectangle-path" points="32.6071429 119.341837 52.29 119.341837 52.29 332.658163 32.6071429 332.658163"></polygon>
            <polygon id="Rectangle-path" points="362.71 119.341837 382.392857 119.341837 382.392857 332.658163 362.71 332.658163"></polygon>
            <polygon id="Rectangle-path" transform="translate(289.986111, 364.938804) rotate(-120.000728) translate(-289.986111, -364.938804) " points="281.389872 272.177069 298.582351 272.177069 298.582351 457.700539 281.389872 457.700539"></polygon>
            <path d="M408.478571,338.884694 C397.095714,358.140816 371.721429,364.713265 351.92,353.643878 C332.118571,342.57449 325.36,317.89898 336.742857,298.642857 C348.125714,279.386735 373.5,272.814286 393.301429,283.883673 C413.221429,295.068367 419.98,319.628571 408.478571,338.884694" id="Shape"></path>
            <path d="M78.1385714,153.357143 C66.7557143,172.613265 41.3814286,179.185714 21.58,168.116327 C1.77857143,157.046939 -4.98,132.371429 6.40285714,113.115306 C17.7857143,93.8591837 43.16,87.2867347 62.9614286,98.3561224 C82.7628571,109.540816 89.5214286,134.10102 78.1385714,153.357143" id="Shape"></path>
            <path d="M6.52142857,338.884694 C-4.86142857,319.628571 1.89714286,295.068367 21.6985714,283.883673 C41.5,272.814286 66.7557143,279.386735 78.2571429,298.642857 C89.64,317.89898 82.8814286,342.459184 63.08,353.643878 C43.16,364.713265 17.9042857,358.140816 6.52142857,338.884694" id="Shape"></path>
            <path d="M336.861429,153.357143 C325.478571,134.10102 332.237143,109.540816 352.038571,98.3561224 C371.84,87.2867347 397.095714,93.8591837 408.597143,113.115306 C419.98,132.371429 413.221429,156.931633 393.42,168.116327 C373.618571,179.185714 348.244286,172.613265 336.861429,153.357143" id="Shape"></path>
            <path d="M207.5,451.769388 C184.615714,451.769388 166.118571,433.781633 166.118571,411.527551 C166.118571,389.273469 184.615714,371.285714 207.5,371.285714 C230.384286,371.285714 248.881429,389.273469 248.881429,411.527551 C248.881429,433.666327 230.384286,451.769388 207.5,451.769388" id="Shape"></path>
            <path d="M207.5,80.7142857 C184.615714,80.7142857 166.118571,62.7265306 166.118571,40.472449 C166.118571,18.2183673 184.615714,0.230612245 207.5,0.230612245 C230.384286,0.230612245 248.881429,18.2183673 248.881429,40.472449 C248.881429,62.7265306 230.384286,80.7142857 207.5,80.7142857" id="Shape"></path>
        </g>
        <path d="M4.4629875,222.642012 C5.82323546,211.006343 6.47906364,208.473675 8.96843716,207.892792 C9.87421902,207.681432 11.0191558,207.734218 12.5306679,207.681468 C14.0440239,207.648285 15.9196926,207.530558 18.2828673,206.979123 C21.3584547,206.26145 25.2615427,204.810767 30.2571492,201.885338 C42.8894143,194.45835 50.2457779,189.322305 108.313295,149.876519 C109.459716,151.048787 110.3115,147.350565 111.136632,143.678559 C111.963799,140.006078 112.764697,136.31973 113.271527,136.201464 C113.483216,136.152067 113.644185,136.734411 113.733624,138.21331 C114.006949,141.489018 117.51324,142.030634 123.709195,140.584839 C146.203118,135.335995 204.197761,103.726013 272.104034,79.9016514 C275.436473,79.0840497 276.062533,81.5775564 276.501521,84.0947183 C276.940318,86.6319218 277.191852,89.2128222 279.202891,88.7435563 C279.960084,88.5668691 280.965173,87.952395 282.325151,86.7551861 C287.898519,81.8152276 295.386971,79.0079978 303.528831,77.1081358 C309.112111,75.8053055 315.004063,74.9303713 320.802384,74.0772855 C326.59886,73.2046331 332.305585,72.3729208 337.510269,71.158434 C345.096446,69.3882376 351.626003,66.8247582 355.849858,62.1997019 C362.080682,55.4065904 365.458166,52.6387756 368.045242,52.0350945 C371.772178,51.1654326 373.853666,54.7990952 380.466099,57.3754845 C387.080567,59.9513989 398.232086,61.4686152 420.095014,56.3670109 C437.415168,52.2854462 453.911247,45.8165714 457.374536,36.4097512 C458.008452,34.6820726 458.577329,33.8094417 459.037344,33.7020995 C459.818963,33.5197127 460.289202,35.5296592 460.245425,39.259303 C460.673495,39.5193597 501.627132,49.5000335 501.737404,53.4736878 C501.910512,57.6726428 502.57594,60.2969416 503.38809,60.1074304 C503.7158,60.0309609 504.070307,59.4883093 504.423879,58.4059584 C505.452916,55.2862801 515.414698,50.6021109 525.909555,48.1531888 C538.209869,45.2829723 551.246708,45.4603969 551.512678,54.8168875 C552.565758,91.8854252 547.85799,216.604971 543.0172,298.30217 C537.995255,296.334497 533.233993,295.565803 529.439886,296.451138 C526.36837,297.167861 523.926147,298.977552 522.490975,302.092015 C522.077607,303.268306 521.663689,303.864815 521.278986,303.954584 C520.367098,304.167368 519.615989,301.583059 519.411966,297.431312 C519.248293,292.670241 496.2093,295.026739 495.676008,295.15118 C488.140908,296.88946 472.287174,302.448564 472.287174,302.448564 C472.302311,299.165535 471.877666,297.484898 471.173395,297.649236 C470.613642,297.779851 469.876252,299.071745 469.041303,301.646211 C465.236606,313.412347 446.85884,332.738397 428.328872,346.740785 C423.68315,350.244469 419.048898,353.185563 414.581842,355.207777 C411.009888,356.861149 407.544234,358.229756 404.315987,358.983051 C403.532333,359.165913 402.76331,359.305367 402.008727,359.421454 C394.286964,360.503399 388.077553,359.532706 385.1274,356.901619 C377.177023,349.818172 373.463715,346.925232 367.90486,348.222362 C365.360529,348.816069 362.428094,350.280218 358.526562,352.6304 C357.631772,353.179143 356.643039,353.569834 355.570349,353.820141 C347.330787,355.742801 334.099025,349.611782 320.267401,342.920846 C307.978108,336.989842 291.33692,328.894819 278.297732,331.937448 C277.768512,332.060939 266.183975,313.16745 208.334029,326.666444 C185.663021,331.95661 155.878828,342.226091 116.914973,360.556692 C108.589274,364.479148 101.736318,367.51803 97.0771385,368.605226 C93.0306344,369.549457 90.6411669,369.027193 90.3930095,366.305527 C90.2928176,364.889127 90.1212881,364.349242 89.8953515,364.401963 C89.3315277,364.533528 88.4310119,368.443091 87.5040351,372.358828 C86.5770583,376.274565 85.621585,380.196952 84.9458106,380.35464 C40.4851601,417.285231 10.9968406,446.742714 -5.7701044,462.213421 C-3.97506127,375.987737 1.24911643,250.147843 4.4629875,222.642012 Z" id="Fill-115" fill-opacity="0.949999988" fill="#FFD844"></path>
        <path d="M-1.34075789,519.586871 C-2.22414963,519.793006 -2.8426674,519.697371 -3.16743149,519.253233 C-4.839647,515.084136 -4.83275427,481.007762 -3.90149093,436.277293 C12.8654541,420.806586 42.3537736,391.349103 86.2567554,353.268839 C86.4069003,354.133665 86.5966294,354.469334 86.8144241,354.418513 C87.4901984,354.260824 88.4456718,350.338438 89.3726486,346.4227 C90.2996254,342.506963 91.2001412,338.597401 91.763965,338.465835 C91.9899016,338.413114 92.161431,338.952999 92.261623,340.369399 C92.5097804,343.091066 94.8992479,343.61333 98.945752,342.669098 C103.604931,341.581902 110.457887,338.543021 118.783586,334.620565 C157.747442,316.289964 187.531635,306.020482 210.202642,300.730317 C268.052589,287.231322 279.637125,306.124812 279.637125,306.124812 L280.166346,306.001321 C293.205534,302.958692 309.846721,311.053715 322.136015,316.984718 C335.967639,323.675655 349.1994,329.806674 357.438962,327.884013 C358.511652,327.633707 359.500385,327.243015 360.395176,326.694273 C364.296708,324.344091 367.229143,322.879942 369.773474,322.286235 C375.332328,320.989104 379.045636,323.882045 386.996013,330.965491 C389.946166,333.596578 396.155578,334.567272 403.877341,333.485326 C404.631923,333.369239 405.400946,333.229785 406.1846,333.046924 C409.412847,332.293628 412.878502,330.925021 416.450456,329.27165 C420.917512,327.249435 425.551763,324.308342 430.197486,320.804657 C448.727453,306.802269 467.10522,287.47622 470.909917,275.710084 C471.744866,273.135618 472.482256,271.843724 473.042008,271.713108 C473.746279,271.54877 474.170924,273.229408 474.155788,276.512436 C474.155788,276.512436 490.009522,270.953333 496.952493,269.333225 C497.158074,269.285254 497.355323,269.259224 497.544621,269.215052 C498.077913,269.090611 521.116907,266.734114 521.280579,271.495185 C521.484602,275.646932 522.235711,278.231241 523.147599,278.018456 C523.532302,277.928688 523.94622,277.332179 524.359588,276.155887 C525.79476,273.041424 528.236983,271.231734 531.3085,270.515011 C535.102606,269.629675 539.863869,270.39837 544.885814,272.366042 C543.250745,300.003391 541.597862,322.705655 540.147886,335.442095 C538.486914,350.067488 535.159573,355.663166 530.712082,356.700965 C527.141877,357.534055 522.848245,355.436428 518.115743,352.72132 C504.907953,345.144929 499.308176,343.71203 495.271849,344.653886 C493.122398,345.15545 491.417349,346.333195 489.240071,347.621132 C487.062985,348.889027 484.415516,350.286681 480.385295,351.227113 C476.886331,352.043578 472.344659,352.523444 466.160726,352.286691 C429.792243,350.874614 375.553217,353.332585 375.553217,353.332585 L352.294669,375.257316 C351.829124,371.90648 351.063646,370.825294 350.088659,371.052802 C348.769677,371.36058 347.07023,374.076781 345.212017,376.83003 C343.353804,379.583278 341.33886,382.373099 339.39092,382.827641 C337.212973,383.335854 335.117954,380.905164 333.425746,372.241424 C332.033708,365.107395 325.469815,362.339706 319.312534,363.776477 C314.687958,364.855599 310.294633,368.300387 308.494824,374.079541 C308.044363,375.524448 305.625704,376.568756 301.794959,377.462641 C296.254423,378.755497 287.758178,379.698213 277.991611,380.957349 C268.227272,382.195968 257.188731,383.731916 246.569711,386.209811 C225.470082,391.133303 206.016543,399.772059 201.412528,417.183873 C197.517083,411.673842 191.219643,410.563714 183.60904,412.33961 C154.371623,419.162014 105.66513,468.54159 98.4021096,474.535719 C95.743462,467.117336 89.5955218,465.452403 81.5676484,467.325667 C68.4490774,470.38682 50.3115002,482.857867 34.1566574,494.846256 C18.0016229,506.854686 3.83135832,518.379984 -1.34075789,519.586871 L695.41255,449.606424" id="Fill-117" fill-opacity="0.890312748" fill="#FFE43A"></path>
        <rect id="Rectangle" stroke="#000000" stroke-width="16" x="8" y="8" width="504" height="504"></rect>
    </g>
</svg>